<?xml version="1.0" encoding="UTF-8" standalone="no"?>
<!-- Created with Inkscape (http://www.inkscape.org/) -->

<svg
   width="512"
   height="512"
   viewBox="0 0 512 512"
   version="1.1"
   id="svg1"
   xmlns:xlink="http://www.w3.org/1999/xlink"
   xmlns="http://www.w3.org/2000/svg"
   xmlns:svg="http://www.w3.org/2000/svg">
  <defs
     id="defs1">
    <pattern
       xlink:href="#shading27"
       preserveAspectRatio="xMidYMid"
       id="pattern2"
       patternTransform="rotate(60,-1413.7115,1054.0209)"
       x="0"
       y="0" />
    <clipPath
       clipPathUnits="userSpaceOnUse"
       id="clipPath52">
      <path
         id="path52"
         style="stroke-width:0.1;stroke-linecap:square;paint-order:markers fill stroke;stop-color:#000000"
         d="m -880.82767,-187.29769 h 1640.84 v 73.28155 h -1640.84 z" />
    </clipPath>
    <pattern
       patternUnits="userSpaceOnUse"
       width="565.45114"
       height="25.387499"
       patternTransform="translate(205.95316,1751.3205)"
       preserveAspectRatio="xMidYMid"
       id="shading27"
       style="fill:#999999">
      <path
         id="use31"
         style="stroke-width:0.487199;stroke-linecap:square;paint-order:markers fill stroke;stop-color:#000000"
         d="m 760.01231,-187.29796 c 0,0.51981 -0.42139,0.9412 -0.9412,0.9412 -0.51981,0 -0.9412,-0.42139 -0.9412,-0.9412 0,-0.51981 0.42139,-0.9412 0.9412,-0.9412 0.51981,0 0.9412,0.42139 0.9412,0.9412 z m -38.03378,0 c 0,0.89093 -0.72224,1.61318 -1.61318,1.61318 -0.89093,0 -1.61318,-0.72225 -1.61318,-1.61318 0,-0.89093 0.72225,-1.61318 1.61318,-1.61318 0.89094,0 1.61318,0.72225 1.61318,1.61318 z m -38.03377,0 c 0,1.26206 -1.02311,2.28516 -2.28516,2.28516 -1.26206,0 -2.28516,-1.0231 -2.28516,-2.28516 0,-1.26206 1.0231,-2.28516 2.28516,-2.28516 1.26205,0 2.28516,1.0231 2.28516,2.28516 z m -38.03378,0 c 0,1.63318 -1.32396,2.95714 -2.95714,2.95714 -1.63319,0 -2.95714,-1.32396 -2.95714,-2.95714 0,-1.63318 1.32396,-2.95714 2.95714,-2.95714 1.63318,0 2.95714,1.32396 2.95714,2.95714 z m -38.03378,0 c 0,2.00431 -1.62481,3.62912 -3.62912,3.62912 -2.00431,0 -3.62912,-1.62481 -3.62912,-3.62912 0,-2.00431 1.62481,-3.62912 3.62912,-3.62912 2.00431,0 3.62912,1.62481 3.62912,3.62912 z m -38.03378,0 c 0,2.37543 -1.92566,4.3011 -4.3011,4.3011 -2.37543,0 -4.3011,-1.92567 -4.3011,-4.3011 0,-2.37543 1.92567,-4.3011 4.3011,-4.3011 2.37544,0 4.3011,1.92567 4.3011,4.3011 z m -38.03377,0 c 0,2.74656 -2.22653,4.97308 -4.97308,4.97308 -2.74656,0 -4.97308,-2.22652 -4.97308,-4.97308 0,-2.74655 2.22652,-4.97308 4.97308,-4.97308 2.74655,0 4.97308,2.22653 4.97308,4.97308 z m -38.03378,0 c 0,3.11768 -2.52738,5.64506 -5.64506,5.64506 -3.11768,0 -5.64506,-2.52738 -5.64506,-5.64506 0,-3.11768 2.52738,-5.64506 5.64506,-5.64506 3.11768,0 5.64506,2.52738 5.64506,5.64506 z m -38.03378,0 c 0,3.48881 -2.82823,6.31704 -6.31704,6.31704 -3.4888,0 -6.31704,-2.82823 -6.31704,-6.31704 0,-3.4888 2.82824,-6.31704 6.31704,-6.31704 3.48881,0 6.31704,2.82824 6.31704,6.31704 z m -38.03378,0 c 0,3.85993 -3.12908,6.98902 -6.98902,6.98902 -3.85993,0 -6.98902,-3.12909 -6.98902,-6.98902 0,-3.85993 3.1291,-6.98902 6.98902,-6.98902 3.85993,0 6.98902,3.12909 6.98902,6.98902 z m -38.03377,0 c 0,4.23106 -3.42995,7.661 -7.661,7.661 -4.23106,0 -7.661,-3.42994 -7.661,-7.661 0,-4.23105 3.42994,-7.661 7.661,-7.661 4.23105,0 7.661,3.42995 7.661,7.661 z m -38.03378,0 c 0,4.60218 -3.7308,8.33298 -8.33298,8.33298 -4.60218,0 -8.33298,-3.7308 -8.33298,-8.33298 0,-4.60218 3.7308,-8.33298 8.33298,-8.33298 4.60218,0 8.33298,3.7308 8.33298,8.33298 z m -38.03378,0 c 0,4.97331 -4.03165,9.00496 -9.00496,9.00496 -4.9733,0 -9.00496,-4.03165 -9.00496,-9.00496 0,-4.9733 4.03166,-9.00496 9.00496,-9.00496 4.9733,0 9.00496,4.03166 9.00496,9.00496 z m -38.03377,0 c 0,5.34443 -4.33252,9.67694 -9.67694,9.67694 -5.34443,0 -9.67694,-4.33251 -9.67694,-9.67694 0,-5.34442 4.33251,-9.67694 9.67694,-9.67694 5.34442,0 9.67694,4.33252 9.67694,9.67694 z m -38.03378,0 c 0,5.71555 -4.63337,10.34893 -10.34892,10.34893 -5.71555,0 -10.34892,-4.63338 -10.34892,-10.34893 0,-5.71555 4.63337,-10.34892 10.34892,-10.34892 5.71555,0 10.34892,4.63337 10.34892,10.34892 z m -38.03378,0 c 0,6.08668 -4.93422,11.02091 -11.0209,11.02091 -6.08668,0 -11.0209,-4.93423 -11.0209,-11.02091 0,-6.08667 4.93423,-11.0209 11.0209,-11.0209 6.08667,0 11.0209,4.93423 11.0209,11.0209 z m -38.03378,0 c 0,6.4578 -5.23507,11.69289 -11.69288,11.69289 -6.4578,0 -11.69288,-5.23509 -11.69288,-11.69289 0,-6.4578 5.23509,-11.69288 11.69288,-11.69288 6.4578,0 11.69288,5.23508 11.69288,11.69288 z m -38.03377,0 c 0,6.82893 -5.53594,12.36487 -12.36486,12.36487 -6.82893,0 -12.364863,-5.53594 -12.364863,-12.36487 0,-6.82892 5.535937,-12.36486 12.364863,-12.36486 6.82892,0 12.36486,5.53594 12.36486,12.36486 z m -38.033781,0 c 0,7.20005 -5.836789,13.03685 -13.036839,13.03685 -7.200051,0 -13.036841,-5.8368 -13.03684,-13.03685 -1e-6,-7.20004 5.836793,-13.03684 13.03684,-13.03684 7.200046,0 13.036839,5.8368 13.036839,13.03684 z m -38.033777,0 c 0,7.57118 -6.137644,13.70883 -13.70882,13.70883 -7.571175,0 -13.7088198,-6.13765 -13.7088197,-13.70883 -10e-8,-7.57117 6.1376487,-13.70882 13.7088197,-13.70882 7.571171,0 13.70882,6.13765 13.70882,13.70882 z m -38.033777,0 c 0,7.9423 -6.4385,14.38081 -14.3808,14.38081 -7.9423,0 -14.3808,-6.43851 -14.3808,-14.38081 0,-7.94229 6.438505,-14.3808 14.3808,-14.3808 7.942295,0 14.3808,6.43851 14.3808,14.3808 z m -38.033777,0 c 0,8.31343 -6.739356,15.05279 -15.05278,15.05279 -8.313425,0 -15.05278,-6.73936 -15.05278,-15.05279 0,-8.31342 6.73936,-15.05278 15.05278,-15.05278 8.313419,0 15.05278,6.73936 15.05278,15.05278 z m -38.033778,0 c 0,8.68455 -7.040211,15.72477 -15.72476,15.72477 -8.68455,0 -15.72476,-7.04022 -15.72476,-15.72477 0,-8.68454 7.04022,-15.72476 15.72476,-15.72476 8.684544,0 15.72476,7.04022 15.72476,15.72476 z m -38.03378,0 c 0,9.05568 -7.34106,16.39675 -16.39674,16.39675 -9.05567,0 -16.39674,-7.34107 -16.39674,-16.39675 0,-9.05566 7.34108,-16.39674 16.39674,-16.39674 9.05567,0 16.39674,7.34108 16.39674,16.39674 z m -38.03377,0 c 0,9.4268 -7.64193,17.06873 -17.06872,17.06873 -9.4268,0 -17.06872,-7.64193 -17.06872,-17.06873 0,-9.42679 7.64192,-17.06872 17.06872,-17.06872 9.42679,0 17.06872,7.64193 17.06872,17.06872 z m -38.03378,0 c 0,9.79793 -7.94278,17.74071 -17.7407,17.74071 -9.79792,0 -17.7407,-7.94278 -17.7407,-17.74071 0,-9.79791 7.94278,-17.7407 17.7407,-17.7407 9.79791,0 17.7407,7.94279 17.7407,17.7407 z m -38.03378,0 c 0,10.16905 -8.24363,18.41269 -18.41268,18.41269 -10.16905,0 -18.41268,-8.24364 -18.41268,-18.41269 0,-10.16904 8.24364,-18.41268 18.41268,-18.41268 10.16904,0 18.41268,8.24364 18.41268,18.41268 z m -38.03378,0 c 0,10.54017 -8.54448,19.08467 -19.08466,19.08467 -10.54017,0 -19.08466,-8.5445 -19.08466,-19.08467 0,-10.54016 8.5445,-19.08466 19.08466,-19.08466 10.54017,0 19.08466,8.5445 19.08466,19.08466 z m -38.03377,0 c 0,10.9113 -8.84535,19.75665 -19.75664,19.75665 -10.9113,0 -19.75664,-8.84535 -19.75664,-19.75665 0,-10.91129 8.84535,-19.75664 19.75664,-19.75664 10.91129,0 19.75664,8.84535 19.75664,19.75664 z m -38.03378,0 c 0,11.28242 -9.1462,20.42863 -20.42862,20.42863 -11.28242,0 -20.42862,-9.14621 -20.42862,-20.42863 0,-11.28241 9.14621,-20.42862 20.42862,-20.42862 11.28241,0 20.42862,9.14621 20.42862,20.42862 z m -38.03378,0 c 0,11.65355 -9.44705,21.10061 -21.1006,21.10061 -11.65354,0 -21.1006,-9.44706 -21.1006,-21.10061 0,-11.65353 9.44706,-21.1006 21.1006,-21.1006 11.65354,0 21.1006,9.44707 21.1006,21.1006 z m -38.03377,0 c 0,12.02467 -9.74792,21.77259 -21.77258,21.77259 -12.02467,0 -21.77258,-9.74792 -21.77258,-21.77259 0,-12.02466 9.74791,-21.77258 21.77258,-21.77258 12.02466,0 21.77258,9.74792 21.77258,21.77258 z m -38.03378,0 c 0,12.3958 -10.04877,22.44457 -22.44456,22.44457 -12.3958,0 -22.44456,-10.04877 -22.44456,-22.44457 0,-12.39578 10.04877,-22.44456 22.44456,-22.44456 12.39578,0 22.44456,10.04878 22.44456,22.44456 z m -38.03378,0 c 0,12.76692 -10.34962,23.11655 -23.11654,23.11655 -12.76692,0 -23.11654,-10.34963 -23.11654,-23.11655 0,-12.76691 10.34963,-23.11654 23.11654,-23.11654 12.76691,0 23.11654,10.34963 23.11654,23.11654 z m -38.03378,0 c 0,13.13805 -10.65047,23.78853 -23.78852,23.78853 -13.13804,0 -23.78852,-10.65048 -23.78852,-23.78853 0,-13.13803 10.65049,-23.78852 23.78852,-23.78852 13.13804,0 23.78852,10.65049 23.78852,23.78852 z m -38.03377,0 c 0,13.50917 -10.95134,24.46051 -24.4605,24.46051 -13.50917,0 -24.4605,-10.95134 -24.4605,-24.46051 0,-13.50915 10.95134,-24.4605 24.4605,-24.4605 13.50915,0 24.4605,10.95135 24.4605,24.4605 z m -38.03378,0 c 0,13.8803 -11.25219,25.13249 -25.13248,25.13249 -13.88029,0 -25.13248,-11.25219 -25.13248,-25.13249 0,-13.88028 11.2522,-25.13248 25.13248,-25.13248 13.88028,0 25.13248,11.2522 25.13248,25.13248 z m -38.03378,0 c 0,14.25142 -11.55304,25.80447 -25.80446,25.80447 -14.25141,0 -25.80446,-11.55305 -25.80446,-25.80447 0,-14.2514 11.55305,-25.80446 25.80446,-25.80446 14.25141,0 25.80446,11.55306 25.80446,25.80446 z m -38.03378,0 c 0,14.62255 -11.85389,26.47645 -26.47644,26.47645 -14.62254,0 -26.47644,-11.8539 -26.47644,-26.47645 0,-14.62253 11.85391,-26.47644 26.47644,-26.47644 14.62254,0 26.47644,11.85391 26.47644,26.47644 z m -38.03377,0 c 0,14.99367 -12.15476,27.14843 -27.14842,27.14843 -14.99367,0 -27.14842,-12.15476 -27.14842,-27.14843 0,-14.99365 12.15476,-27.14842 27.14842,-27.14842 14.99365,0 27.14842,12.15477 27.14842,27.14842 z m -38.03378,1e-5 c 0,15.36479 -12.45561,27.82041 -27.8204,27.82041 -15.36479,0 -27.8204,-12.45562 -27.8204,-27.82041 0,-15.36478 12.45562,-27.8204 27.8204,-27.8204 15.36478,0 27.8204,12.45562 27.8204,27.8204 z m 1466.15637,36.6408 c 0,0.51981 -0.42139,0.9412 -0.9412,0.9412 -0.51981,0 -0.9412,-0.42139 -0.9412,-0.9412 0,-0.51981 0.42139,-0.9412 0.9412,-0.9412 0.51981,0 0.9412,0.42139 0.9412,0.9412 z m -38.03377,0 c 0,0.89093 -0.72225,1.61318 -1.61318,1.61318 -0.89094,0 -1.61318,-0.72225 -1.61318,-1.61318 0,-0.89093 0.72224,-1.61318 1.61318,-1.61318 0.89093,0 1.61318,0.72225 1.61318,1.61318 z m -38.03378,0 c 0,1.26206 -1.0231,2.28516 -2.28516,2.28516 -1.26206,0 -2.28516,-1.0231 -2.28516,-2.28516 0,-1.26206 1.0231,-2.28516 2.28516,-2.28516 1.26206,0 2.28516,1.0231 2.28516,2.28516 z m -38.03378,0 c 0,1.63318 -1.32395,2.95714 -2.95714,2.95714 -1.63318,0 -2.95714,-1.32396 -2.95714,-2.95714 0,-1.63318 1.32396,-2.95714 2.95714,-2.95714 1.63318,0 2.95714,1.32396 2.95714,2.95714 z m -38.03378,0 c 0,2.00431 -1.62481,3.62912 -3.62912,3.62912 -2.0043,0 -3.62912,-1.62481 -3.62912,-3.62912 0,-2.00431 1.62482,-3.62912 3.62912,-3.62912 2.00431,0 3.62912,1.62481 3.62912,3.62912 z m -38.03377,0 c 0,2.37543 -1.92567,4.3011 -4.3011,4.3011 -2.37543,0 -4.3011,-1.92567 -4.3011,-4.3011 0,-2.37543 1.92567,-4.3011 4.3011,-4.3011 2.37543,0 4.3011,1.92567 4.3011,4.3011 z m -38.03378,0 c 0,2.74656 -2.22652,4.97308 -4.97308,4.97308 -2.74656,0 -4.97308,-2.22652 -4.97308,-4.97308 0,-2.74655 2.22652,-4.97308 4.97308,-4.97308 2.74656,0 4.97308,2.22653 4.97308,4.97308 z m -38.03378,0 c 0,3.11768 -2.52738,5.64506 -5.64506,5.64506 -3.11768,0 -5.64506,-2.52738 -5.64506,-5.64506 0,-3.11768 2.52738,-5.64506 5.64506,-5.64506 3.11768,0 5.64506,2.52738 5.64506,5.64506 z m -38.03377,0 c 0,3.48881 -2.82824,6.31704 -6.31704,6.31704 -3.48881,0 -6.31704,-2.82823 -6.31704,-6.31704 0,-3.4888 2.82823,-6.31704 6.31704,-6.31704 3.4888,0 6.31704,2.82824 6.31704,6.31704 z m -38.03378,0 c 0,3.85993 -3.12909,6.98902 -6.98902,6.98902 -3.85993,0 -6.98902,-3.12909 -6.98902,-6.98902 0,-3.85993 3.12909,-6.98902 6.98902,-6.98902 3.85993,0 6.98902,3.12909 6.98902,6.98902 z m -38.03378,0 c 0,4.23106 -3.42994,7.661 -7.661,7.661 -4.23105,0 -7.661,-3.42994 -7.661,-7.661 0,-4.23105 3.42995,-7.661 7.661,-7.661 4.23105,0 7.661,3.42995 7.661,7.661 z m -38.03378,0 c 0,4.60218 -3.7308,8.33298 -8.33298,8.33298 -4.60218,0 -8.33298,-3.7308 -8.33298,-8.33298 0,-4.60218 3.73081,-8.33298 8.33298,-8.33298 4.60218,0 8.33298,3.7308 8.33298,8.33298 z m -38.03377,0 c 0,4.97331 -4.03166,9.00496 -9.00496,9.00496 -4.97331,0 -9.00496,-4.03165 -9.00496,-9.00496 0,-4.9733 4.03166,-9.00496 9.00496,-9.00496 4.9733,0 9.00496,4.03166 9.00496,9.00496 z m -38.03378,0 c 0,5.34443 -4.33251,9.67694 -9.67694,9.67694 -5.34443,0 -9.67694,-4.33251 -9.67694,-9.67694 0,-5.34442 4.33251,-9.67694 9.67694,-9.67694 5.34442,0 9.67694,4.33252 9.67694,9.67694 z m -38.03378,0 c 0,5.71555 -4.63336,10.34893 -10.34892,10.34893 -5.71555,0 -10.34892,-4.63338 -10.34892,-10.34893 0,-5.71555 4.63337,-10.34892 10.34892,-10.34892 5.71555,0 10.34892,4.63337 10.34892,10.34892 z m -38.03377,0 c 0,6.08668 -4.93423,11.02091 -11.0209,11.02091 -6.08668,0 -11.0209,-4.93423 -11.0209,-11.02091 0,-6.08667 4.93422,-11.0209 11.0209,-11.0209 6.08667,0 11.0209,4.93423 11.0209,11.0209 z m -38.033782,0 c 0,6.4578 -5.235078,11.69289 -11.69288,11.69289 -6.457802,0 -11.69288,-5.23509 -11.69288,-11.69289 0,-6.4578 5.235082,-11.69288 11.69288,-11.69288 6.457798,0 11.69288,5.23508 11.69288,11.69288 z m -38.033777,0 c 0,6.82893 -5.535934,12.36487 -12.36486,12.36487 -6.828927,0 -12.36486,-5.53594 -12.36486,-12.36487 0,-6.82892 5.535937,-12.36486 12.36486,-12.36486 6.828922,0 12.36486,5.53594 12.36486,12.36486 z m -38.033778,0 c 0,7.20005 -5.836789,13.03685 -13.0368396,13.03685 -7.20005105,0 -13.0368401,-5.8368 -13.03684,-13.03685 -1e-7,-7.20004 5.83679345,-13.03684 13.03684,-13.03684 7.2000466,0 13.0368396,5.8368 13.0368396,13.03684 z m -38.033777,0 c 0,7.57118 -6.137644,13.70883 -13.70882,13.70883 -7.571175,0 -13.70882,-6.13765 -13.70882,-13.70883 0,-7.57117 6.137649,-13.70882 13.70882,-13.70882 7.571171,0 13.70882,6.13765 13.70882,13.70882 z m -38.033777,0 c 0,7.9423 -6.4385,14.38081 -14.3808,14.38081 -7.9423,0 -14.3808,-6.43851 -14.3808,-14.38081 0,-7.94229 6.438505,-14.3808 14.3808,-14.3808 7.942295,0 14.3808,6.43851 14.3808,14.3808 z m -38.033777,0 c 0,8.31343 -6.739352,15.05279 -15.052782,15.05279 -8.31342,0 -15.05278,-6.73936 -15.05278,-15.05279 0,-8.31342 6.73936,-15.05278 15.05278,-15.05278 8.31342,0 15.052782,6.73936 15.052782,15.05278 z m -38.033782,0 c 0,8.68455 -7.04021,15.72477 -15.72476,15.72477 -8.68454,0 -15.72476,-7.04022 -15.72476,-15.72477 0,-8.68454 7.04022,-15.72476 15.72476,-15.72476 8.68455,0 15.72476,7.04022 15.72476,15.72476 z m -38.03377,0 c 0,9.05568 -7.34107,16.39675 -16.39674,16.39675 -9.05568,0 -16.39674,-7.34107 -16.39674,-16.39675 0,-9.05566 7.34107,-16.39674 16.39674,-16.39674 9.05566,0 16.39674,7.34108 16.39674,16.39674 z m -38.03378,0 c 0,9.4268 -7.64192,17.06873 -17.06872,17.06873 -9.4268,0 -17.06872,-7.64193 -17.06872,-17.06873 0,-9.42679 7.64193,-17.06872 17.06872,-17.06872 9.42679,0 17.06872,7.64193 17.06872,17.06872 z m -38.03378,0 c 0,9.79793 -7.94277,17.74071 -17.7407,17.74071 -9.79792,0 -17.7407,-7.94278 -17.7407,-17.74071 0,-9.79791 7.94279,-17.7407 17.7407,-17.7407 9.79792,0 17.7407,7.94279 17.7407,17.7407 z m -38.03377,0 c 0,10.16905 -8.24364,18.41269 -18.41268,18.41269 -10.16905,0 -18.41268,-8.24364 -18.41268,-18.41269 0,-10.16904 8.24363,-18.41268 18.41268,-18.41268 10.16904,0 18.41268,8.24364 18.41268,18.41268 z m -38.03378,0 c 0,10.54017 -8.54449,19.08467 -19.08466,19.08467 -10.54017,0 -19.08466,-8.5445 -19.08466,-19.08467 0,-10.54016 8.54449,-19.08466 19.08466,-19.08466 10.54016,0 19.08466,8.5445 19.08466,19.08466 z m -38.03378,0 c 0,10.9113 -8.84534,19.75665 -19.75664,19.75665 -10.9113,0 -19.75664,-8.84535 -19.75664,-19.75665 0,-10.91129 8.84535,-19.75664 19.75664,-19.75664 10.91129,0 19.75664,8.84535 19.75664,19.75664 z m -38.03378,0 c 0,11.28242 -9.1462,20.42863 -20.42862,20.42863 -11.28242,0 -20.42862,-9.14621 -20.42862,-20.42863 0,-11.28241 9.14621,-20.42862 20.42862,-20.42862 11.28242,0 20.42862,9.14621 20.42862,20.42862 z m -38.03377,0 c 0,11.65355 -9.44706,21.10061 -21.1006,21.10061 -11.65355,0 -21.1006,-9.44706 -21.1006,-21.10061 0,-11.65353 9.44706,-21.1006 21.1006,-21.1006 11.65353,0 21.1006,9.44707 21.1006,21.1006 z m -38.03378,0 c 0,12.02467 -9.74791,21.77259 -21.77258,21.77259 -12.02467,0 -21.77258,-9.74792 -21.77258,-21.77259 0,-12.02466 9.74792,-21.77258 21.77258,-21.77258 12.02466,0 21.77258,9.74792 21.77258,21.77258 z m -38.03378,0 c 0,12.3958 -10.04876,22.44457 -22.44456,22.44457 -12.39579,0 -22.44456,-10.04877 -22.44456,-22.44457 0,-12.39578 10.04878,-22.44456 22.44456,-22.44456 12.39579,0 22.44456,10.04878 22.44456,22.44456 z m -38.03378,0 c 0,12.76692 -10.34962,23.11655 -23.11654,23.11655 -12.76691,0 -23.11654,-10.34963 -23.11654,-23.11655 0,-12.76691 10.34963,-23.11654 23.11654,-23.11654 12.76691,0 23.11654,10.34963 23.11654,23.11654 z m -38.03377,0 c 0,13.13805 -10.65048,23.78853 -23.78852,23.78853 -13.13805,0 -23.78852,-10.65048 -23.78852,-23.78853 0,-13.13803 10.65048,-23.78852 23.78852,-23.78852 13.13803,0 23.78852,10.65049 23.78852,23.78852 z m -38.03378,0 c 0,13.50917 -10.95133,24.46051 -24.4605,24.46051 -13.50917,0 -24.4605,-10.95134 -24.4605,-24.46051 0,-13.50915 10.95134,-24.4605 24.4605,-24.4605 13.50916,0 24.4605,10.95135 24.4605,24.4605 z m -38.03378,0 c 0,13.8803 -11.25219,25.13249 -25.13248,25.13249 -13.88029,0 -25.13248,-11.25219 -25.13248,-25.13249 0,-13.88028 11.2522,-25.13248 25.13248,-25.13248 13.88029,0 25.13248,11.2522 25.13248,25.13248 z m -38.03377,0 c 0,14.25142 -11.55305,25.80447 -25.80446,25.80447 -14.25142,0 -25.80446,-11.55305 -25.80446,-25.80447 0,-14.2514 11.55305,-25.80446 25.80446,-25.80446 14.2514,0 25.80446,11.55306 25.80446,25.80446 z m -38.03378,0 c 0,14.62255 -11.8539,26.47645 -26.47644,26.47645 -14.62254,0 -26.47644,-11.8539 -26.47644,-26.47645 0,-14.62253 11.85391,-26.47644 26.47644,-26.47644 14.62253,0 26.47644,11.85391 26.47644,26.47644 z m -38.03378,0 c 0,14.99367 -12.15475,27.14843 -27.14842,27.14843 -14.99366,0 -27.14842,-12.15476 -27.14842,-27.14843 0,-14.99365 12.15477,-27.14842 27.14842,-27.14842 14.99366,0 27.14842,12.15477 27.14842,27.14842 z m -38.03378,1e-5 c 0,15.36479 -12.45561,27.82041 -27.8204,27.82041 -15.36479,0 -27.8204,-12.45562 -27.8204,-27.82041 0,-15.36478 12.45562,-27.8204 27.8204,-27.8204 15.36478,0 27.8204,12.45562 27.8204,27.8204 z m 1576.54581,36.6408 c 0,0.51981 -0.42139,0.9412 -0.9412,0.9412 -0.51981,0 -0.9412,-0.42139 -0.9412,-0.9412 0,-0.51981 0.42139,-0.9412 0.9412,-0.9412 0.51981,0 0.9412,0.42139 0.9412,0.9412 z m -38.03378,0 c 0,0.89093 -0.72224,1.61318 -1.61318,1.61318 -0.89093,0 -1.61318,-0.72225 -1.61318,-1.61318 0,-0.89093 0.72225,-1.61318 1.61318,-1.61318 0.89094,0 1.61318,0.72225 1.61318,1.61318 z m -38.03377,0 c 0,1.26206 -1.02311,2.28516 -2.28516,2.28516 -1.26206,0 -2.28516,-1.0231 -2.28516,-2.28516 0,-1.26206 1.0231,-2.28516 2.28516,-2.28516 1.26205,0 2.28516,1.0231 2.28516,2.28516 z m -38.03378,0 c 0,1.63318 -1.32396,2.95714 -2.95714,2.95714 -1.63319,0 -2.95714,-1.32396 -2.95714,-2.95714 0,-1.63318 1.32396,-2.95714 2.95714,-2.95714 1.63318,0 2.95714,1.32396 2.95714,2.95714 z m -38.03378,0 c 0,2.00431 -1.62481,3.62912 -3.62912,3.62912 -2.00431,0 -3.62912,-1.62481 -3.62912,-3.62912 0,-2.00431 1.62481,-3.62912 3.62912,-3.62912 2.00431,0 3.62912,1.62481 3.62912,3.62912 z m -38.03378,0 c 0,2.37543 -1.92566,4.3011 -4.3011,4.3011 -2.37543,0 -4.3011,-1.92567 -4.3011,-4.3011 0,-2.37543 1.92567,-4.3011 4.3011,-4.3011 2.37544,0 4.3011,1.92567 4.3011,4.3011 z m -38.03377,0 c 0,2.74656 -2.22653,4.97308 -4.97308,4.97308 -2.74656,0 -4.97308,-2.22652 -4.97308,-4.97308 0,-2.74655 2.22652,-4.97308 4.97308,-4.97308 2.74655,0 4.97308,2.22653 4.97308,4.97308 z m -38.03378,0 c 0,3.11768 -2.52738,5.64506 -5.64506,5.64506 -3.11768,0 -5.64506,-2.52738 -5.64506,-5.64506 0,-3.11768 2.52738,-5.64506 5.64506,-5.64506 3.11768,0 5.64506,2.52738 5.64506,5.64506 z m -38.03378,0 c 0,3.48881 -2.82823,6.31704 -6.31704,6.31704 -3.4888,0 -6.31704,-2.82823 -6.31704,-6.31704 0,-3.4888 2.82824,-6.31704 6.31704,-6.31704 3.48881,0 6.31704,2.82824 6.31704,6.31704 z m -38.03378,0 c 0,3.85993 -3.12908,6.98902 -6.98902,6.98902 -3.85993,0 -6.98902,-3.12909 -6.98902,-6.98902 0,-3.85993 3.1291,-6.98902 6.98902,-6.98902 3.85993,0 6.98902,3.12909 6.98902,6.98902 z m -38.03377,0 c 0,4.23106 -3.42995,7.661 -7.661,7.661 -4.23106,0 -7.661,-3.42994 -7.661,-7.661 0,-4.23105 3.42994,-7.661 7.661,-7.661 4.23105,0 7.661,3.42995 7.661,7.661 z m -38.03378,0 c 0,4.60218 -3.7308,8.33298 -8.33298,8.33298 -4.60218,0 -8.33298,-3.7308 -8.33298,-8.33298 0,-4.60218 3.7308,-8.33298 8.33298,-8.33298 4.60218,0 8.33298,3.7308 8.33298,8.33298 z m -38.03378,0 c 0,4.97331 -4.03165,9.00496 -9.00496,9.00496 -4.9733,0 -9.00496,-4.03165 -9.00496,-9.00496 0,-4.9733 4.03166,-9.00496 9.00496,-9.00496 4.9733,0 9.00496,4.03166 9.00496,9.00496 z m -38.03377,0 c 0,5.34443 -4.33252,9.67694 -9.67694,9.67694 -5.34443,0 -9.67694,-4.33251 -9.67694,-9.67694 0,-5.34442 4.33251,-9.67694 9.67694,-9.67694 5.34442,0 9.67694,4.33252 9.67694,9.67694 z m -38.03378,0 c 0,5.71555 -4.63337,10.34893 -10.34892,10.34893 -5.71555,0 -10.34892,-4.63338 -10.34892,-10.34893 0,-5.71555 4.63337,-10.34892 10.34892,-10.34892 5.71555,0 10.34892,4.63337 10.34892,10.34892 z m -38.03378,0 c 0,6.08668 -4.93422,11.02091 -11.0209,11.02091 -6.08668,0 -11.0209,-4.93423 -11.0209,-11.02091 0,-6.08667 4.93423,-11.0209 11.0209,-11.0209 6.08667,0 11.0209,4.93423 11.0209,11.0209 z m -38.03378,0 c 0,6.4578 -5.23507,11.69289 -11.69288,11.69289 -6.4578,0 -11.69288,-5.23509 -11.69288,-11.69289 0,-6.4578 5.23509,-11.69288 11.69288,-11.69288 6.4578,0 11.69288,5.23508 11.69288,11.69288 z m -38.03377,0 c 0,6.82893 -5.53594,12.36487 -12.36486,12.36487 -6.82893,0 -12.364863,-5.53594 -12.364863,-12.36487 0,-6.82892 5.535937,-12.36486 12.364863,-12.36486 6.82892,0 12.36486,5.53594 12.36486,12.36486 z m -38.033781,0 c 0,7.20005 -5.836789,13.03685 -13.036839,13.03685 -7.200051,0 -13.036841,-5.8368 -13.03684,-13.03685 -1e-6,-7.20004 5.836793,-13.03684 13.03684,-13.03684 7.200046,0 13.036839,5.8368 13.036839,13.03684 z m -38.033777,0 c 0,7.57118 -6.137644,13.70883 -13.70882,13.70883 -7.571175,0 -13.7088198,-6.13765 -13.7088197,-13.70883 -10e-8,-7.57117 6.1376487,-13.70882 13.7088197,-13.70882 7.571171,0 13.70882,6.13765 13.70882,13.70882 z m -38.033777,0 c 0,7.9423 -6.4385,14.380808 -14.3808,14.380808 -7.9423,0 -14.3808,-6.438508 -14.3808,-14.380808 0,-7.94229 6.438505,-14.3808 14.3808,-14.3808 7.942295,0 14.3808,6.43851 14.3808,14.3808 z m -38.033777,0 c 0,8.31343 -6.739356,15.052788 -15.05278,15.052788 -8.313425,0 -15.05278,-6.739358 -15.05278,-15.052788 0,-8.31342 6.73936,-15.05278 15.05278,-15.05278 8.313419,0 15.05278,6.73936 15.05278,15.05278 z m -38.033778,0 c 0,8.68455 -7.040211,15.724768 -15.72476,15.724768 -8.68455,0 -15.72476,-7.040218 -15.72476,-15.724768 0,-8.68454 7.04022,-15.72476 15.72476,-15.72476 8.684544,0 15.72476,7.04022 15.72476,15.72476 z m -38.03378,0 c 0,9.05568 -7.34106,16.396749 -16.39674,16.396749 -9.05567,0 -16.39674,-7.341069 -16.39674,-16.396749 0,-9.05566 7.34108,-16.39674 16.39674,-16.39674 9.05567,0 16.39674,7.34108 16.39674,16.39674 z m -38.03377,0 c 0,9.4268 -7.64193,17.068729 -17.06872,17.068729 -9.4268,0 -17.06872,-7.641929 -17.06872,-17.068729 0,-9.42679 7.64192,-17.06872 17.06872,-17.06872 9.42679,0 17.06872,7.64193 17.06872,17.06872 z m -38.03378,0 c 0,9.79793 -7.94278,17.740709 -17.7407,17.740709 -9.79792,0 -17.7407,-7.942779 -17.7407,-17.740709 0,-9.79791 7.94278,-17.7407 17.7407,-17.7407 9.79791,0 17.7407,7.94279 17.7407,17.7407 z m -38.03378,0 c 0,10.16905 -8.24363,18.41269 -18.41268,18.41269 -10.16905,0 -18.41268,-8.24364 -18.41268,-18.41269 0,-10.16904 8.24364,-18.41268 18.41268,-18.41268 10.16904,0 18.41268,8.24364 18.41268,18.41268 z m -38.03378,0 c 0,10.54017 -8.54448,19.08467 -19.08466,19.08467 -10.54017,0 -19.08466,-8.5445 -19.08466,-19.08467 0,-10.54016 8.5445,-19.08466 19.08466,-19.08466 10.54017,0 19.08466,8.5445 19.08466,19.08466 z m -38.03377,0 c 0,10.9113 -8.84535,19.756651 -19.75664,19.756651 -10.9113,0 -19.75664,-8.845351 -19.75664,-19.756651 0,-10.91129 8.84535,-19.75664 19.75664,-19.75664 10.91129,0 19.75664,8.84535 19.75664,19.75664 z m -38.03378,0 c 0,11.28242 -9.1462,20.428631 -20.42862,20.428631 -11.28242,0 -20.42862,-9.146211 -20.42862,-20.428631 0,-11.28241 9.14621,-20.42862 20.42862,-20.42862 11.28241,0 20.42862,9.14621 20.42862,20.42862 z m -38.03378,0 c 0,11.65355 -9.44705,21.100611 -21.1006,21.100611 -11.65354,0 -21.1006,-9.447061 -21.1006,-21.100611 0,-11.65353 9.44706,-21.1006 21.1006,-21.1006 11.65354,0 21.1006,9.44707 21.1006,21.1006 z m -38.03377,0 c 0,12.02467 -9.74792,21.772592 -21.77258,21.772592 -12.02467,0 -21.77258,-9.747922 -21.77258,-21.772592 0,-12.02466 9.74791,-21.77258 21.77258,-21.77258 12.02466,0 21.77258,9.74792 21.77258,21.77258 z m -38.03378,0 c 0,12.3958 -10.04877,22.444572 -22.44456,22.444572 -12.3958,0 -22.44456,-10.048772 -22.44456,-22.444572 0,-12.39578 10.04877,-22.44456 22.44456,-22.44456 12.39578,0 22.44456,10.04878 22.44456,22.44456 z m -38.03378,0 c 0,12.76692 -10.34962,23.116552 -23.11654,23.116552 -12.76692,0 -23.11654,-10.349632 -23.11654,-23.116552 0,-12.76691 10.34963,-23.11654 23.11654,-23.11654 12.76691,0 23.11654,10.34963 23.11654,23.11654 z m -38.03378,0 c 0,13.13805 -10.65047,23.788533 -23.78852,23.788533 -13.13804,0 -23.78852,-10.650483 -23.78852,-23.788533 0,-13.13803 10.65049,-23.78852 23.78852,-23.78852 13.13804,0 23.78852,10.65049 23.78852,23.78852 z m -38.03377,0 c 0,13.50917 -10.95134,24.460513 -24.4605,24.460513 -13.50917,0 -24.4605,-10.951343 -24.4605,-24.460513 0,-13.50915 10.95134,-24.4605 24.4605,-24.4605 13.50915,0 24.4605,10.95135 24.4605,24.4605 z m -38.03378,0 c 0,13.8803 -11.25219,25.132494 -25.13248,25.132494 -13.88029,0 -25.13248,-11.252194 -25.13248,-25.132494 0,-13.88028 11.2522,-25.13248 25.13248,-25.13248 13.88028,0 25.13248,11.2522 25.13248,25.13248 z m -38.03378,0 c 0,14.251421 -11.55304,25.804474 -25.80446,25.804474 -14.25141,0 -25.80446,-11.553053 -25.80446,-25.804474 0,-14.2514 11.55305,-25.80446 25.80446,-25.80446 14.25141,0 25.80446,11.55306 25.80446,25.80446 z m -38.03378,0 c 0,14.622546 -11.85389,26.476454 -26.47644,26.476454 -14.62254,0 -26.47644,-11.853908 -26.47644,-26.476454 0,-14.62253 11.85391,-26.47644 26.47644,-26.47644 14.62254,0 26.47644,11.85391 26.47644,26.47644 z m -38.03377,0 c 0,14.99367 -12.15476,27.148435 -27.14842,27.148435 -14.99367,0 -27.14842,-12.154765 -27.14842,-27.148435 0,-14.99365 12.15476,-27.14842 27.14842,-27.14842 14.99365,0 27.14842,12.15477 27.14842,27.14842 z m -38.03378,1e-5 c 0,15.364785 -12.45561,27.820405 -27.8204,27.820405 -15.36479,0 -27.8204,-12.45562 -27.8204,-27.820405 0,-15.36478 12.45562,-27.8204 27.8204,-27.8204 15.36478,0 27.8204,12.45562 27.8204,27.8204 z"
         transform="matrix(0.3464378,0,0,0.3464378,302.15415,64.887)"
         clip-path="url(#clipPath52)" />
    </pattern>
    <pattern
       xlink:href="#shading27-5"
       preserveAspectRatio="xMidYMid"
       id="pattern2-1"
       patternTransform="rotate(60,-1347.4182,1184.0537)"
       x="0"
       y="0" />
    <pattern
       patternUnits="userSpaceOnUse"
       width="565.45114"
       height="25.387499"
       patternTransform="translate(205.95316,1751.3205)"
       preserveAspectRatio="xMidYMid"
       id="shading27-5"
       style="fill:#999999">
      <path
         id="use31-2"
         style="stroke-width:0.487199;stroke-linecap:square;paint-order:markers fill stroke;stop-color:#000000"
         d="m 760.01231,-187.29796 c 0,0.51981 -0.42139,0.9412 -0.9412,0.9412 -0.51981,0 -0.9412,-0.42139 -0.9412,-0.9412 0,-0.51981 0.42139,-0.9412 0.9412,-0.9412 0.51981,0 0.9412,0.42139 0.9412,0.9412 z m -38.03378,0 c 0,0.89093 -0.72224,1.61318 -1.61318,1.61318 -0.89093,0 -1.61318,-0.72225 -1.61318,-1.61318 0,-0.89093 0.72225,-1.61318 1.61318,-1.61318 0.89094,0 1.61318,0.72225 1.61318,1.61318 z m -38.03377,0 c 0,1.26206 -1.02311,2.28516 -2.28516,2.28516 -1.26206,0 -2.28516,-1.0231 -2.28516,-2.28516 0,-1.26206 1.0231,-2.28516 2.28516,-2.28516 1.26205,0 2.28516,1.0231 2.28516,2.28516 z m -38.03378,0 c 0,1.63318 -1.32396,2.95714 -2.95714,2.95714 -1.63319,0 -2.95714,-1.32396 -2.95714,-2.95714 0,-1.63318 1.32396,-2.95714 2.95714,-2.95714 1.63318,0 2.95714,1.32396 2.95714,2.95714 z m -38.03378,0 c 0,2.00431 -1.62481,3.62912 -3.62912,3.62912 -2.00431,0 -3.62912,-1.62481 -3.62912,-3.62912 0,-2.00431 1.62481,-3.62912 3.62912,-3.62912 2.00431,0 3.62912,1.62481 3.62912,3.62912 z m -38.03378,0 c 0,2.37543 -1.92566,4.3011 -4.3011,4.3011 -2.37543,0 -4.3011,-1.92567 -4.3011,-4.3011 0,-2.37543 1.92567,-4.3011 4.3011,-4.3011 2.37544,0 4.3011,1.92567 4.3011,4.3011 z m -38.03377,0 c 0,2.74656 -2.22653,4.97308 -4.97308,4.97308 -2.74656,0 -4.97308,-2.22652 -4.97308,-4.97308 0,-2.74655 2.22652,-4.97308 4.97308,-4.97308 2.74655,0 4.97308,2.22653 4.97308,4.97308 z m -38.03378,0 c 0,3.11768 -2.52738,5.64506 -5.64506,5.64506 -3.11768,0 -5.64506,-2.52738 -5.64506,-5.64506 0,-3.11768 2.52738,-5.64506 5.64506,-5.64506 3.11768,0 5.64506,2.52738 5.64506,5.64506 z m -38.03378,0 c 0,3.48881 -2.82823,6.31704 -6.31704,6.31704 -3.4888,0 -6.31704,-2.82823 -6.31704,-6.31704 0,-3.4888 2.82824,-6.31704 6.31704,-6.31704 3.48881,0 6.31704,2.82824 6.31704,6.31704 z m -38.03378,0 c 0,3.85993 -3.12908,6.98902 -6.98902,6.98902 -3.85993,0 -6.98902,-3.12909 -6.98902,-6.98902 0,-3.85993 3.1291,-6.98902 6.98902,-6.98902 3.85993,0 6.98902,3.12909 6.98902,6.98902 z m -38.03377,0 c 0,4.23106 -3.42995,7.661 -7.661,7.661 -4.23106,0 -7.661,-3.42994 -7.661,-7.661 0,-4.23105 3.42994,-7.661 7.661,-7.661 4.23105,0 7.661,3.42995 7.661,7.661 z m -38.03378,0 c 0,4.60218 -3.7308,8.33298 -8.33298,8.33298 -4.60218,0 -8.33298,-3.7308 -8.33298,-8.33298 0,-4.60218 3.7308,-8.33298 8.33298,-8.33298 4.60218,0 8.33298,3.7308 8.33298,8.33298 z m -38.03378,0 c 0,4.97331 -4.03165,9.00496 -9.00496,9.00496 -4.9733,0 -9.00496,-4.03165 -9.00496,-9.00496 0,-4.9733 4.03166,-9.00496 9.00496,-9.00496 4.9733,0 9.00496,4.03166 9.00496,9.00496 z m -38.03377,0 c 0,5.34443 -4.33252,9.67694 -9.67694,9.67694 -5.34443,0 -9.67694,-4.33251 -9.67694,-9.67694 0,-5.34442 4.33251,-9.67694 9.67694,-9.67694 5.34442,0 9.67694,4.33252 9.67694,9.67694 z m -38.03378,0 c 0,5.71555 -4.63337,10.34893 -10.34892,10.34893 -5.71555,0 -10.34892,-4.63338 -10.34892,-10.34893 0,-5.71555 4.63337,-10.34892 10.34892,-10.34892 5.71555,0 10.34892,4.63337 10.34892,10.34892 z m -38.03378,0 c 0,6.08668 -4.93422,11.02091 -11.0209,11.02091 -6.08668,0 -11.0209,-4.93423 -11.0209,-11.02091 0,-6.08667 4.93423,-11.0209 11.0209,-11.0209 6.08667,0 11.0209,4.93423 11.0209,11.0209 z m -38.03378,0 c 0,6.4578 -5.23507,11.69289 -11.69288,11.69289 -6.4578,0 -11.69288,-5.23509 -11.69288,-11.69289 0,-6.4578 5.23509,-11.69288 11.69288,-11.69288 6.4578,0 11.69288,5.23508 11.69288,11.69288 z m -38.03377,0 c 0,6.82893 -5.53594,12.36487 -12.36486,12.36487 -6.82893,0 -12.364863,-5.53594 -12.364863,-12.36487 0,-6.82892 5.535937,-12.36486 12.364863,-12.36486 6.82892,0 12.36486,5.53594 12.36486,12.36486 z m -38.033781,0 c 0,7.20005 -5.836789,13.03685 -13.036839,13.03685 -7.200051,0 -13.036841,-5.8368 -13.03684,-13.03685 -1e-6,-7.20004 5.836793,-13.03684 13.03684,-13.03684 7.200046,0 13.036839,5.8368 13.036839,13.03684 z m -38.033777,0 c 0,7.57118 -6.137644,13.70883 -13.70882,13.70883 -7.571175,0 -13.7088198,-6.13765 -13.7088197,-13.70883 -10e-8,-7.57117 6.1376487,-13.70882 13.7088197,-13.70882 7.571171,0 13.70882,6.13765 13.70882,13.70882 z m -38.033777,0 c 0,7.9423 -6.4385,14.38081 -14.3808,14.38081 -7.9423,0 -14.3808,-6.43851 -14.3808,-14.38081 0,-7.94229 6.438505,-14.3808 14.3808,-14.3808 7.942295,0 14.3808,6.43851 14.3808,14.3808 z m -38.033777,0 c 0,8.31343 -6.739356,15.05279 -15.05278,15.05279 -8.313425,0 -15.05278,-6.73936 -15.05278,-15.05279 0,-8.31342 6.73936,-15.05278 15.05278,-15.05278 8.313419,0 15.05278,6.73936 15.05278,15.05278 z m -38.033778,0 c 0,8.68455 -7.040211,15.72477 -15.72476,15.72477 -8.68455,0 -15.72476,-7.04022 -15.72476,-15.72477 0,-8.68454 7.04022,-15.72476 15.72476,-15.72476 8.684544,0 15.72476,7.04022 15.72476,15.72476 z m -38.03378,0 c 0,9.05568 -7.34106,16.39675 -16.39674,16.39675 -9.05567,0 -16.39674,-7.34107 -16.39674,-16.39675 0,-9.05566 7.34108,-16.39674 16.39674,-16.39674 9.05567,0 16.39674,7.34108 16.39674,16.39674 z m -38.03377,0 c 0,9.4268 -7.64193,17.06873 -17.06872,17.06873 -9.4268,0 -17.06872,-7.64193 -17.06872,-17.06873 0,-9.42679 7.64192,-17.06872 17.06872,-17.06872 9.42679,0 17.06872,7.64193 17.06872,17.06872 z m -38.03378,0 c 0,9.79793 -7.94278,17.74071 -17.7407,17.74071 -9.79792,0 -17.7407,-7.94278 -17.7407,-17.74071 0,-9.79791 7.94278,-17.7407 17.7407,-17.7407 9.79791,0 17.7407,7.94279 17.7407,17.7407 z m -38.03378,0 c 0,10.16905 -8.24363,18.41269 -18.41268,18.41269 -10.16905,0 -18.41268,-8.24364 -18.41268,-18.41269 0,-10.16904 8.24364,-18.41268 18.41268,-18.41268 10.16904,0 18.41268,8.24364 18.41268,18.41268 z m -38.03378,0 c 0,10.54017 -8.54448,19.08467 -19.08466,19.08467 -10.54017,0 -19.08466,-8.5445 -19.08466,-19.08467 0,-10.54016 8.5445,-19.08466 19.08466,-19.08466 10.54017,0 19.08466,8.5445 19.08466,19.08466 z m -38.03377,0 c 0,10.9113 -8.84535,19.75665 -19.75664,19.75665 -10.9113,0 -19.75664,-8.84535 -19.75664,-19.75665 0,-10.91129 8.84535,-19.75664 19.75664,-19.75664 10.91129,0 19.75664,8.84535 19.75664,19.75664 z m -38.03378,0 c 0,11.28242 -9.1462,20.42863 -20.42862,20.42863 -11.28242,0 -20.42862,-9.14621 -20.42862,-20.42863 0,-11.28241 9.14621,-20.42862 20.42862,-20.42862 11.28241,0 20.42862,9.14621 20.42862,20.42862 z m -38.03378,0 c 0,11.65355 -9.44705,21.10061 -21.1006,21.10061 -11.65354,0 -21.1006,-9.44706 -21.1006,-21.10061 0,-11.65353 9.44706,-21.1006 21.1006,-21.1006 11.65354,0 21.1006,9.44707 21.1006,21.1006 z m -38.03377,0 c 0,12.02467 -9.74792,21.77259 -21.77258,21.77259 -12.02467,0 -21.77258,-9.74792 -21.77258,-21.77259 0,-12.02466 9.74791,-21.77258 21.77258,-21.77258 12.02466,0 21.77258,9.74792 21.77258,21.77258 z m -38.03378,0 c 0,12.3958 -10.04877,22.44457 -22.44456,22.44457 -12.3958,0 -22.44456,-10.04877 -22.44456,-22.44457 0,-12.39578 10.04877,-22.44456 22.44456,-22.44456 12.39578,0 22.44456,10.04878 22.44456,22.44456 z m -38.03378,0 c 0,12.76692 -10.34962,23.11655 -23.11654,23.11655 -12.76692,0 -23.11654,-10.34963 -23.11654,-23.11655 0,-12.76691 10.34963,-23.11654 23.11654,-23.11654 12.76691,0 23.11654,10.34963 23.11654,23.11654 z m -38.03378,0 c 0,13.13805 -10.65047,23.78853 -23.78852,23.78853 -13.13804,0 -23.78852,-10.65048 -23.78852,-23.78853 0,-13.13803 10.65049,-23.78852 23.78852,-23.78852 13.13804,0 23.78852,10.65049 23.78852,23.78852 z m -38.03377,0 c 0,13.50917 -10.95134,24.46051 -24.4605,24.46051 -13.50917,0 -24.4605,-10.95134 -24.4605,-24.46051 0,-13.50915 10.95134,-24.4605 24.4605,-24.4605 13.50915,0 24.4605,10.95135 24.4605,24.4605 z m -38.03378,0 c 0,13.8803 -11.25219,25.13249 -25.13248,25.13249 -13.88029,0 -25.13248,-11.25219 -25.13248,-25.13249 0,-13.88028 11.2522,-25.13248 25.13248,-25.13248 13.88028,0 25.13248,11.2522 25.13248,25.13248 z m -38.03378,0 c 0,14.25142 -11.55304,25.80447 -25.80446,25.80447 -14.25141,0 -25.80446,-11.55305 -25.80446,-25.80447 0,-14.2514 11.55305,-25.80446 25.80446,-25.80446 14.25141,0 25.80446,11.55306 25.80446,25.80446 z m -38.03378,0 c 0,14.62255 -11.85389,26.47645 -26.47644,26.47645 -14.62254,0 -26.47644,-11.8539 -26.47644,-26.47645 0,-14.62253 11.85391,-26.47644 26.47644,-26.47644 14.62254,0 26.47644,11.85391 26.47644,26.47644 z m -38.03377,0 c 0,14.99367 -12.15476,27.14843 -27.14842,27.14843 -14.99367,0 -27.14842,-12.15476 -27.14842,-27.14843 0,-14.99365 12.15476,-27.14842 27.14842,-27.14842 14.99365,0 27.14842,12.15477 27.14842,27.14842 z m -38.03378,1e-5 c 0,15.36479 -12.45561,27.82041 -27.8204,27.82041 -15.36479,0 -27.8204,-12.45562 -27.8204,-27.82041 0,-15.36478 12.45562,-27.8204 27.8204,-27.8204 15.36478,0 27.8204,12.45562 27.8204,27.8204 z m 1466.15637,36.6408 c 0,0.51981 -0.42139,0.9412 -0.9412,0.9412 -0.51981,0 -0.9412,-0.42139 -0.9412,-0.9412 0,-0.51981 0.42139,-0.9412 0.9412,-0.9412 0.51981,0 0.9412,0.42139 0.9412,0.9412 z m -38.03377,0 c 0,0.89093 -0.72225,1.61318 -1.61318,1.61318 -0.89094,0 -1.61318,-0.72225 -1.61318,-1.61318 0,-0.89093 0.72224,-1.61318 1.61318,-1.61318 0.89093,0 1.61318,0.72225 1.61318,1.61318 z m -38.03378,0 c 0,1.26206 -1.0231,2.28516 -2.28516,2.28516 -1.26206,0 -2.28516,-1.0231 -2.28516,-2.28516 0,-1.26206 1.0231,-2.28516 2.28516,-2.28516 1.26206,0 2.28516,1.0231 2.28516,2.28516 z m -38.03378,0 c 0,1.63318 -1.32395,2.95714 -2.95714,2.95714 -1.63318,0 -2.95714,-1.32396 -2.95714,-2.95714 0,-1.63318 1.32396,-2.95714 2.95714,-2.95714 1.63318,0 2.95714,1.32396 2.95714,2.95714 z m -38.03378,0 c 0,2.00431 -1.62481,3.62912 -3.62912,3.62912 -2.0043,0 -3.62912,-1.62481 -3.62912,-3.62912 0,-2.00431 1.62482,-3.62912 3.62912,-3.62912 2.00431,0 3.62912,1.62481 3.62912,3.62912 z m -38.03377,0 c 0,2.37543 -1.92567,4.3011 -4.3011,4.3011 -2.37543,0 -4.3011,-1.92567 -4.3011,-4.3011 0,-2.37543 1.92567,-4.3011 4.3011,-4.3011 2.37543,0 4.3011,1.92567 4.3011,4.3011 z m -38.03378,0 c 0,2.74656 -2.22652,4.97308 -4.97308,4.97308 -2.74656,0 -4.97308,-2.22652 -4.97308,-4.97308 0,-2.74655 2.22652,-4.97308 4.97308,-4.97308 2.74656,0 4.97308,2.22653 4.97308,4.97308 z m -38.03378,0 c 0,3.11768 -2.52738,5.64506 -5.64506,5.64506 -3.11768,0 -5.64506,-2.52738 -5.64506,-5.64506 0,-3.11768 2.52738,-5.64506 5.64506,-5.64506 3.11768,0 5.64506,2.52738 5.64506,5.64506 z m -38.03377,0 c 0,3.48881 -2.82824,6.31704 -6.31704,6.31704 -3.48881,0 -6.31704,-2.82823 -6.31704,-6.31704 0,-3.4888 2.82823,-6.31704 6.31704,-6.31704 3.4888,0 6.31704,2.82824 6.31704,6.31704 z m -38.03378,0 c 0,3.85993 -3.12909,6.98902 -6.98902,6.98902 -3.85993,0 -6.98902,-3.12909 -6.98902,-6.98902 0,-3.85993 3.12909,-6.98902 6.98902,-6.98902 3.85993,0 6.98902,3.12909 6.98902,6.98902 z m -38.03378,0 c 0,4.23106 -3.42994,7.661 -7.661,7.661 -4.23105,0 -7.661,-3.42994 -7.661,-7.661 0,-4.23105 3.42995,-7.661 7.661,-7.661 4.23105,0 7.661,3.42995 7.661,7.661 z m -38.03378,0 c 0,4.60218 -3.7308,8.33298 -8.33298,8.33298 -4.60218,0 -8.33298,-3.7308 -8.33298,-8.33298 0,-4.60218 3.73081,-8.33298 8.33298,-8.33298 4.60218,0 8.33298,3.7308 8.33298,8.33298 z m -38.03377,0 c 0,4.97331 -4.03166,9.00496 -9.00496,9.00496 -4.97331,0 -9.00496,-4.03165 -9.00496,-9.00496 0,-4.9733 4.03166,-9.00496 9.00496,-9.00496 4.9733,0 9.00496,4.03166 9.00496,9.00496 z m -38.03378,0 c 0,5.34443 -4.33251,9.67694 -9.67694,9.67694 -5.34443,0 -9.67694,-4.33251 -9.67694,-9.67694 0,-5.34442 4.33251,-9.67694 9.67694,-9.67694 5.34442,0 9.67694,4.33252 9.67694,9.67694 z m -38.03378,0 c 0,5.71555 -4.63336,10.34893 -10.34892,10.34893 -5.71555,0 -10.34892,-4.63338 -10.34892,-10.34893 0,-5.71555 4.63337,-10.34892 10.34892,-10.34892 5.71555,0 10.34892,4.63337 10.34892,10.34892 z m -38.03377,0 c 0,6.08668 -4.93423,11.02091 -11.0209,11.02091 -6.08668,0 -11.0209,-4.93423 -11.0209,-11.02091 0,-6.08667 4.93422,-11.0209 11.0209,-11.0209 6.08667,0 11.0209,4.93423 11.0209,11.0209 z m -38.033782,0 c 0,6.4578 -5.235078,11.69289 -11.69288,11.69289 -6.457802,0 -11.69288,-5.23509 -11.69288,-11.69289 0,-6.4578 5.235082,-11.69288 11.69288,-11.69288 6.457798,0 11.69288,5.23508 11.69288,11.69288 z m -38.033777,0 c 0,6.82893 -5.535934,12.36487 -12.36486,12.36487 -6.828927,0 -12.36486,-5.53594 -12.36486,-12.36487 0,-6.82892 5.535937,-12.36486 12.36486,-12.36486 6.828922,0 12.36486,5.53594 12.36486,12.36486 z m -38.033778,0 c 0,7.20005 -5.836789,13.03685 -13.0368396,13.03685 -7.20005105,0 -13.0368401,-5.8368 -13.03684,-13.03685 -1e-7,-7.20004 5.83679345,-13.03684 13.03684,-13.03684 7.2000466,0 13.0368396,5.8368 13.0368396,13.03684 z m -38.033777,0 c 0,7.57118 -6.137644,13.70883 -13.70882,13.70883 -7.571175,0 -13.70882,-6.13765 -13.70882,-13.70883 0,-7.57117 6.137649,-13.70882 13.70882,-13.70882 7.571171,0 13.70882,6.13765 13.70882,13.70882 z m -38.033777,0 c 0,7.9423 -6.4385,14.38081 -14.3808,14.38081 -7.9423,0 -14.3808,-6.43851 -14.3808,-14.38081 0,-7.94229 6.438505,-14.3808 14.3808,-14.3808 7.942295,0 14.3808,6.43851 14.3808,14.3808 z m -38.033777,0 c 0,8.31343 -6.739352,15.05279 -15.052782,15.05279 -8.31342,0 -15.05278,-6.73936 -15.05278,-15.05279 0,-8.31342 6.73936,-15.05278 15.05278,-15.05278 8.31342,0 15.052782,6.73936 15.052782,15.05278 z m -38.033782,0 c 0,8.68455 -7.04021,15.72477 -15.72476,15.72477 -8.68454,0 -15.72476,-7.04022 -15.72476,-15.72477 0,-8.68454 7.04022,-15.72476 15.72476,-15.72476 8.68455,0 15.72476,7.04022 15.72476,15.72476 z m -38.03377,0 c 0,9.05568 -7.34107,16.39675 -16.39674,16.39675 -9.05568,0 -16.39674,-7.34107 -16.39674,-16.39675 0,-9.05566 7.34107,-16.39674 16.39674,-16.39674 9.05566,0 16.39674,7.34108 16.39674,16.39674 z m -38.03378,0 c 0,9.4268 -7.64192,17.06873 -17.06872,17.06873 -9.4268,0 -17.06872,-7.64193 -17.06872,-17.06873 0,-9.42679 7.64193,-17.06872 17.06872,-17.06872 9.42679,0 17.06872,7.64193 17.06872,17.06872 z m -38.03378,0 c 0,9.79793 -7.94277,17.74071 -17.7407,17.74071 -9.79792,0 -17.7407,-7.94278 -17.7407,-17.74071 0,-9.79791 7.94279,-17.7407 17.7407,-17.7407 9.79792,0 17.7407,7.94279 17.7407,17.7407 z m -38.03377,0 c 0,10.16905 -8.24364,18.41269 -18.41268,18.41269 -10.16905,0 -18.41268,-8.24364 -18.41268,-18.41269 0,-10.16904 8.24363,-18.41268 18.41268,-18.41268 10.16904,0 18.41268,8.24364 18.41268,18.41268 z m -38.03378,0 c 0,10.54017 -8.54449,19.08467 -19.08466,19.08467 -10.54017,0 -19.08466,-8.5445 -19.08466,-19.08467 0,-10.54016 8.54449,-19.08466 19.08466,-19.08466 10.54016,0 19.08466,8.5445 19.08466,19.08466 z m -38.03378,0 c 0,10.9113 -8.84534,19.75665 -19.75664,19.75665 -10.9113,0 -19.75664,-8.84535 -19.75664,-19.75665 0,-10.91129 8.84535,-19.75664 19.75664,-19.75664 10.91129,0 19.75664,8.84535 19.75664,19.75664 z m -38.03378,0 c 0,11.28242 -9.1462,20.42863 -20.42862,20.42863 -11.28242,0 -20.42862,-9.14621 -20.42862,-20.42863 0,-11.28241 9.14621,-20.42862 20.42862,-20.42862 11.28242,0 20.42862,9.14621 20.42862,20.42862 z m -38.03377,0 c 0,11.65355 -9.44706,21.10061 -21.1006,21.10061 -11.65355,0 -21.1006,-9.44706 -21.1006,-21.10061 0,-11.65353 9.44706,-21.1006 21.1006,-21.1006 11.65353,0 21.1006,9.44707 21.1006,21.1006 z m -38.03378,0 c 0,12.02467 -9.74791,21.77259 -21.77258,21.77259 -12.02467,0 -21.77258,-9.74792 -21.77258,-21.77259 0,-12.02466 9.74792,-21.77258 21.77258,-21.77258 12.02466,0 21.77258,9.74792 21.77258,21.77258 z m -38.03378,0 c 0,12.3958 -10.04876,22.44457 -22.44456,22.44457 -12.39579,0 -22.44456,-10.04877 -22.44456,-22.44457 0,-12.39578 10.04878,-22.44456 22.44456,-22.44456 12.39579,0 22.44456,10.04878 22.44456,22.44456 z m -38.03378,0 c 0,12.76692 -10.34962,23.11655 -23.11654,23.11655 -12.76691,0 -23.11654,-10.34963 -23.11654,-23.11655 0,-12.76691 10.34963,-23.11654 23.11654,-23.11654 12.76691,0 23.11654,10.34963 23.11654,23.11654 z m -38.03377,0 c 0,13.13805 -10.65048,23.78853 -23.78852,23.78853 -13.13805,0 -23.78852,-10.65048 -23.78852,-23.78853 0,-13.13803 10.65048,-23.78852 23.78852,-23.78852 13.13803,0 23.78852,10.65049 23.78852,23.78852 z m -38.03378,0 c 0,13.50917 -10.95133,24.46051 -24.4605,24.46051 -13.50917,0 -24.4605,-10.95134 -24.4605,-24.46051 0,-13.50915 10.95134,-24.4605 24.4605,-24.4605 13.50916,0 24.4605,10.95135 24.4605,24.4605 z m -38.03378,0 c 0,13.8803 -11.25219,25.13249 -25.13248,25.13249 -13.88029,0 -25.13248,-11.25219 -25.13248,-25.13249 0,-13.88028 11.2522,-25.13248 25.13248,-25.13248 13.88029,0 25.13248,11.2522 25.13248,25.13248 z m -38.03377,0 c 0,14.25142 -11.55305,25.80447 -25.80446,25.80447 -14.25142,0 -25.80446,-11.55305 -25.80446,-25.80447 0,-14.2514 11.55305,-25.80446 25.80446,-25.80446 14.2514,0 25.80446,11.55306 25.80446,25.80446 z m -38.03378,0 c 0,14.62255 -11.8539,26.47645 -26.47644,26.47645 -14.62254,0 -26.47644,-11.8539 -26.47644,-26.47645 0,-14.62253 11.85391,-26.47644 26.47644,-26.47644 14.62253,0 26.47644,11.85391 26.47644,26.47644 z m -38.03378,0 c 0,14.99367 -12.15475,27.14843 -27.14842,27.14843 -14.99366,0 -27.14842,-12.15476 -27.14842,-27.14843 0,-14.99365 12.15477,-27.14842 27.14842,-27.14842 14.99366,0 27.14842,12.15477 27.14842,27.14842 z m -38.03378,1e-5 c 0,15.36479 -12.45561,27.82041 -27.8204,27.82041 -15.36479,0 -27.8204,-12.45562 -27.8204,-27.82041 0,-15.36478 12.45562,-27.8204 27.8204,-27.8204 15.36478,0 27.8204,12.45562 27.8204,27.8204 z m 1576.54581,36.6408 c 0,0.51981 -0.42139,0.9412 -0.9412,0.9412 -0.51981,0 -0.9412,-0.42139 -0.9412,-0.9412 0,-0.51981 0.42139,-0.9412 0.9412,-0.9412 0.51981,0 0.9412,0.42139 0.9412,0.9412 z m -38.03378,0 c 0,0.89093 -0.72224,1.61318 -1.61318,1.61318 -0.89093,0 -1.61318,-0.72225 -1.61318,-1.61318 0,-0.89093 0.72225,-1.61318 1.61318,-1.61318 0.89094,0 1.61318,0.72225 1.61318,1.61318 z m -38.03377,0 c 0,1.26206 -1.02311,2.28516 -2.28516,2.28516 -1.26206,0 -2.28516,-1.0231 -2.28516,-2.28516 0,-1.26206 1.0231,-2.28516 2.28516,-2.28516 1.26205,0 2.28516,1.0231 2.28516,2.28516 z m -38.03378,0 c 0,1.63318 -1.32396,2.95714 -2.95714,2.95714 -1.63319,0 -2.95714,-1.32396 -2.95714,-2.95714 0,-1.63318 1.32396,-2.95714 2.95714,-2.95714 1.63318,0 2.95714,1.32396 2.95714,2.95714 z m -38.03378,0 c 0,2.00431 -1.62481,3.62912 -3.62912,3.62912 -2.00431,0 -3.62912,-1.62481 -3.62912,-3.62912 0,-2.00431 1.62481,-3.62912 3.62912,-3.62912 2.00431,0 3.62912,1.62481 3.62912,3.62912 z m -38.03378,0 c 0,2.37543 -1.92566,4.3011 -4.3011,4.3011 -2.37543,0 -4.3011,-1.92567 -4.3011,-4.3011 0,-2.37543 1.92567,-4.3011 4.3011,-4.3011 2.37544,0 4.3011,1.92567 4.3011,4.3011 z m -38.03377,0 c 0,2.74656 -2.22653,4.97308 -4.97308,4.97308 -2.74656,0 -4.97308,-2.22652 -4.97308,-4.97308 0,-2.74655 2.22652,-4.97308 4.97308,-4.97308 2.74655,0 4.97308,2.22653 4.97308,4.97308 z m -38.03378,0 c 0,3.11768 -2.52738,5.64506 -5.64506,5.64506 -3.11768,0 -5.64506,-2.52738 -5.64506,-5.64506 0,-3.11768 2.52738,-5.64506 5.64506,-5.64506 3.11768,0 5.64506,2.52738 5.64506,5.64506 z m -38.03378,0 c 0,3.48881 -2.82823,6.31704 -6.31704,6.31704 -3.4888,0 -6.31704,-2.82823 -6.31704,-6.31704 0,-3.4888 2.82824,-6.31704 6.31704,-6.31704 3.48881,0 6.31704,2.82824 6.31704,6.31704 z m -38.03378,0 c 0,3.85993 -3.12908,6.98902 -6.98902,6.98902 -3.85993,0 -6.98902,-3.12909 -6.98902,-6.98902 0,-3.85993 3.1291,-6.98902 6.98902,-6.98902 3.85993,0 6.98902,3.12909 6.98902,6.98902 z m -38.03377,0 c 0,4.23106 -3.42995,7.661 -7.661,7.661 -4.23106,0 -7.661,-3.42994 -7.661,-7.661 0,-4.23105 3.42994,-7.661 7.661,-7.661 4.23105,0 7.661,3.42995 7.661,7.661 z m -38.03378,0 c 0,4.60218 -3.7308,8.33298 -8.33298,8.33298 -4.60218,0 -8.33298,-3.7308 -8.33298,-8.33298 0,-4.60218 3.7308,-8.33298 8.33298,-8.33298 4.60218,0 8.33298,3.7308 8.33298,8.33298 z m -38.03378,0 c 0,4.97331 -4.03165,9.00496 -9.00496,9.00496 -4.9733,0 -9.00496,-4.03165 -9.00496,-9.00496 0,-4.9733 4.03166,-9.00496 9.00496,-9.00496 4.9733,0 9.00496,4.03166 9.00496,9.00496 z m -38.03377,0 c 0,5.34443 -4.33252,9.67694 -9.67694,9.67694 -5.34443,0 -9.67694,-4.33251 -9.67694,-9.67694 0,-5.34442 4.33251,-9.67694 9.67694,-9.67694 5.34442,0 9.67694,4.33252 9.67694,9.67694 z m -38.03378,0 c 0,5.71555 -4.63337,10.34893 -10.34892,10.34893 -5.71555,0 -10.34892,-4.63338 -10.34892,-10.34893 0,-5.71555 4.63337,-10.34892 10.34892,-10.34892 5.71555,0 10.34892,4.63337 10.34892,10.34892 z m -38.03378,0 c 0,6.08668 -4.93422,11.02091 -11.0209,11.02091 -6.08668,0 -11.0209,-4.93423 -11.0209,-11.02091 0,-6.08667 4.93423,-11.0209 11.0209,-11.0209 6.08667,0 11.0209,4.93423 11.0209,11.0209 z m -38.03378,0 c 0,6.4578 -5.23507,11.69289 -11.69288,11.69289 -6.4578,0 -11.69288,-5.23509 -11.69288,-11.69289 0,-6.4578 5.23509,-11.69288 11.69288,-11.69288 6.4578,0 11.69288,5.23508 11.69288,11.69288 z m -38.03377,0 c 0,6.82893 -5.53594,12.36487 -12.36486,12.36487 -6.82893,0 -12.364863,-5.53594 -12.364863,-12.36487 0,-6.82892 5.535937,-12.36486 12.364863,-12.36486 6.82892,0 12.36486,5.53594 12.36486,12.36486 z m -38.033781,0 c 0,7.20005 -5.836789,13.03685 -13.036839,13.03685 -7.200051,0 -13.036841,-5.8368 -13.03684,-13.03685 -1e-6,-7.20004 5.836793,-13.03684 13.03684,-13.03684 7.200046,0 13.036839,5.8368 13.036839,13.03684 z m -38.033777,0 c 0,7.57118 -6.137644,13.70883 -13.70882,13.70883 -7.571175,0 -13.7088198,-6.13765 -13.7088197,-13.70883 -10e-8,-7.57117 6.1376487,-13.70882 13.7088197,-13.70882 7.571171,0 13.70882,6.13765 13.70882,13.70882 z m -38.033777,0 c 0,7.9423 -6.4385,14.380808 -14.3808,14.380808 -7.9423,0 -14.3808,-6.438508 -14.3808,-14.380808 0,-7.94229 6.438505,-14.3808 14.3808,-14.3808 7.942295,0 14.3808,6.43851 14.3808,14.3808 z m -38.033777,0 c 0,8.31343 -6.739356,15.052788 -15.05278,15.052788 -8.313425,0 -15.05278,-6.739358 -15.05278,-15.052788 0,-8.31342 6.73936,-15.05278 15.05278,-15.05278 8.313419,0 15.05278,6.73936 15.05278,15.05278 z m -38.033778,0 c 0,8.68455 -7.040211,15.724768 -15.72476,15.724768 -8.68455,0 -15.72476,-7.040218 -15.72476,-15.724768 0,-8.68454 7.04022,-15.72476 15.72476,-15.72476 8.684544,0 15.72476,7.04022 15.72476,15.72476 z m -38.03378,0 c 0,9.05568 -7.34106,16.396749 -16.39674,16.396749 -9.05567,0 -16.39674,-7.341069 -16.39674,-16.396749 0,-9.05566 7.34108,-16.39674 16.39674,-16.39674 9.05567,0 16.39674,7.34108 16.39674,16.39674 z m -38.03377,0 c 0,9.4268 -7.64193,17.068729 -17.06872,17.068729 -9.4268,0 -17.06872,-7.641929 -17.06872,-17.068729 0,-9.42679 7.64192,-17.06872 17.06872,-17.06872 9.42679,0 17.06872,7.64193 17.06872,17.06872 z m -38.03378,0 c 0,9.79793 -7.94278,17.740709 -17.7407,17.740709 -9.79792,0 -17.7407,-7.942779 -17.7407,-17.740709 0,-9.79791 7.94278,-17.7407 17.7407,-17.7407 9.79791,0 17.7407,7.94279 17.7407,17.7407 z m -38.03378,0 c 0,10.16905 -8.24363,18.41269 -18.41268,18.41269 -10.16905,0 -18.41268,-8.24364 -18.41268,-18.41269 0,-10.16904 8.24364,-18.41268 18.41268,-18.41268 10.16904,0 18.41268,8.24364 18.41268,18.41268 z m -38.03378,0 c 0,10.54017 -8.54448,19.08467 -19.08466,19.08467 -10.54017,0 -19.08466,-8.5445 -19.08466,-19.08467 0,-10.54016 8.5445,-19.08466 19.08466,-19.08466 10.54017,0 19.08466,8.5445 19.08466,19.08466 z m -38.03377,0 c 0,10.9113 -8.84535,19.756651 -19.75664,19.756651 -10.9113,0 -19.75664,-8.845351 -19.75664,-19.756651 0,-10.91129 8.84535,-19.75664 19.75664,-19.75664 10.91129,0 19.75664,8.84535 19.75664,19.75664 z m -38.03378,0 c 0,11.28242 -9.1462,20.428631 -20.42862,20.428631 -11.28242,0 -20.42862,-9.146211 -20.42862,-20.428631 0,-11.28241 9.14621,-20.42862 20.42862,-20.42862 11.28241,0 20.42862,9.14621 20.42862,20.42862 z m -38.03378,0 c 0,11.65355 -9.44705,21.100611 -21.1006,21.100611 -11.65354,0 -21.1006,-9.447061 -21.1006,-21.100611 0,-11.65353 9.44706,-21.1006 21.1006,-21.1006 11.65354,0 21.1006,9.44707 21.1006,21.1006 z m -38.03377,0 c 0,12.02467 -9.74792,21.772592 -21.77258,21.772592 -12.02467,0 -21.77258,-9.747922 -21.77258,-21.772592 0,-12.02466 9.74791,-21.77258 21.77258,-21.77258 12.02466,0 21.77258,9.74792 21.77258,21.77258 z m -38.03378,0 c 0,12.3958 -10.04877,22.444572 -22.44456,22.444572 -12.3958,0 -22.44456,-10.048772 -22.44456,-22.444572 0,-12.39578 10.04877,-22.44456 22.44456,-22.44456 12.39578,0 22.44456,10.04878 22.44456,22.44456 z m -38.03378,0 c 0,12.76692 -10.34962,23.116552 -23.11654,23.116552 -12.76692,0 -23.11654,-10.349632 -23.11654,-23.116552 0,-12.76691 10.34963,-23.11654 23.11654,-23.11654 12.76691,0 23.11654,10.34963 23.11654,23.11654 z m -38.03378,0 c 0,13.13805 -10.65047,23.788533 -23.78852,23.788533 -13.13804,0 -23.78852,-10.650483 -23.78852,-23.788533 0,-13.13803 10.65049,-23.78852 23.78852,-23.78852 13.13804,0 23.78852,10.65049 23.78852,23.78852 z m -38.03377,0 c 0,13.50917 -10.95134,24.460513 -24.4605,24.460513 -13.50917,0 -24.4605,-10.951343 -24.4605,-24.460513 0,-13.50915 10.95134,-24.4605 24.4605,-24.4605 13.50915,0 24.4605,10.95135 24.4605,24.4605 z m -38.03378,0 c 0,13.8803 -11.25219,25.132494 -25.13248,25.132494 -13.88029,0 -25.13248,-11.252194 -25.13248,-25.132494 0,-13.88028 11.2522,-25.13248 25.13248,-25.13248 13.88028,0 25.13248,11.2522 25.13248,25.13248 z m -38.03378,0 c 0,14.251421 -11.55304,25.804474 -25.80446,25.804474 -14.25141,0 -25.80446,-11.553053 -25.80446,-25.804474 0,-14.2514 11.55305,-25.80446 25.80446,-25.80446 14.25141,0 25.80446,11.55306 25.80446,25.80446 z m -38.03378,0 c 0,14.622546 -11.85389,26.476454 -26.47644,26.476454 -14.62254,0 -26.47644,-11.853908 -26.47644,-26.476454 0,-14.62253 11.85391,-26.47644 26.47644,-26.47644 14.62254,0 26.47644,11.85391 26.47644,26.47644 z m -38.03377,0 c 0,14.99367 -12.15476,27.148435 -27.14842,27.148435 -14.99367,0 -27.14842,-12.154765 -27.14842,-27.148435 0,-14.99365 12.15476,-27.14842 27.14842,-27.14842 14.99365,0 27.14842,12.15477 27.14842,27.14842 z m -38.03378,1e-5 c 0,15.364785 -12.45561,27.820405 -27.8204,27.820405 -15.36479,0 -27.8204,-12.45562 -27.8204,-27.820405 0,-15.36478 12.45562,-27.8204 27.8204,-27.8204 15.36478,0 27.8204,12.45562 27.8204,27.8204 z"
         transform="matrix(0.3464378,0,0,0.3464378,302.15415,64.887)"
         clip-path="url(#clipPath52-7)" />
    </pattern>
    <clipPath
       clipPathUnits="userSpaceOnUse"
       id="clipPath52-7">
      <path
         id="path52-6"
         style="stroke-width:0.1;stroke-linecap:square;paint-order:markers fill stroke;stop-color:#000000"
         d="m -880.82767,-187.29769 h 1640.84 v 73.28155 h -1640.84 z" />
    </clipPath>
    <pattern
       xlink:href="#shading27-1"
       preserveAspectRatio="xMidYMid"
       id="pattern2-2"
       patternTransform="rotate(60,-1515.8803,874.35286)"
       x="0"
       y="0" />
    <pattern
       patternUnits="userSpaceOnUse"
       width="565.45114"
       height="25.387499"
       patternTransform="translate(205.95316,1751.3205)"
       preserveAspectRatio="xMidYMid"
       id="shading27-1"
       style="fill:#999999">
      <path
         id="use31-6"
         style="stroke-width:0.487199;stroke-linecap:square;paint-order:markers fill stroke;stop-color:#000000"
         d="m 760.01231,-187.29796 c 0,0.51981 -0.42139,0.9412 -0.9412,0.9412 -0.51981,0 -0.9412,-0.42139 -0.9412,-0.9412 0,-0.51981 0.42139,-0.9412 0.9412,-0.9412 0.51981,0 0.9412,0.42139 0.9412,0.9412 z m -38.03378,0 c 0,0.89093 -0.72224,1.61318 -1.61318,1.61318 -0.89093,0 -1.61318,-0.72225 -1.61318,-1.61318 0,-0.89093 0.72225,-1.61318 1.61318,-1.61318 0.89094,0 1.61318,0.72225 1.61318,1.61318 z m -38.03377,0 c 0,1.26206 -1.02311,2.28516 -2.28516,2.28516 -1.26206,0 -2.28516,-1.0231 -2.28516,-2.28516 0,-1.26206 1.0231,-2.28516 2.28516,-2.28516 1.26205,0 2.28516,1.0231 2.28516,2.28516 z m -38.03378,0 c 0,1.63318 -1.32396,2.95714 -2.95714,2.95714 -1.63319,0 -2.95714,-1.32396 -2.95714,-2.95714 0,-1.63318 1.32396,-2.95714 2.95714,-2.95714 1.63318,0 2.95714,1.32396 2.95714,2.95714 z m -38.03378,0 c 0,2.00431 -1.62481,3.62912 -3.62912,3.62912 -2.00431,0 -3.62912,-1.62481 -3.62912,-3.62912 0,-2.00431 1.62481,-3.62912 3.62912,-3.62912 2.00431,0 3.62912,1.62481 3.62912,3.62912 z m -38.03378,0 c 0,2.37543 -1.92566,4.3011 -4.3011,4.3011 -2.37543,0 -4.3011,-1.92567 -4.3011,-4.3011 0,-2.37543 1.92567,-4.3011 4.3011,-4.3011 2.37544,0 4.3011,1.92567 4.3011,4.3011 z m -38.03377,0 c 0,2.74656 -2.22653,4.97308 -4.97308,4.97308 -2.74656,0 -4.97308,-2.22652 -4.97308,-4.97308 0,-2.74655 2.22652,-4.97308 4.97308,-4.97308 2.74655,0 4.97308,2.22653 4.97308,4.97308 z m -38.03378,0 c 0,3.11768 -2.52738,5.64506 -5.64506,5.64506 -3.11768,0 -5.64506,-2.52738 -5.64506,-5.64506 0,-3.11768 2.52738,-5.64506 5.64506,-5.64506 3.11768,0 5.64506,2.52738 5.64506,5.64506 z m -38.03378,0 c 0,3.48881 -2.82823,6.31704 -6.31704,6.31704 -3.4888,0 -6.31704,-2.82823 -6.31704,-6.31704 0,-3.4888 2.82824,-6.31704 6.31704,-6.31704 3.48881,0 6.31704,2.82824 6.31704,6.31704 z m -38.03378,0 c 0,3.85993 -3.12908,6.98902 -6.98902,6.98902 -3.85993,0 -6.98902,-3.12909 -6.98902,-6.98902 0,-3.85993 3.1291,-6.98902 6.98902,-6.98902 3.85993,0 6.98902,3.12909 6.98902,6.98902 z m -38.03377,0 c 0,4.23106 -3.42995,7.661 -7.661,7.661 -4.23106,0 -7.661,-3.42994 -7.661,-7.661 0,-4.23105 3.42994,-7.661 7.661,-7.661 4.23105,0 7.661,3.42995 7.661,7.661 z m -38.03378,0 c 0,4.60218 -3.7308,8.33298 -8.33298,8.33298 -4.60218,0 -8.33298,-3.7308 -8.33298,-8.33298 0,-4.60218 3.7308,-8.33298 8.33298,-8.33298 4.60218,0 8.33298,3.7308 8.33298,8.33298 z m -38.03378,0 c 0,4.97331 -4.03165,9.00496 -9.00496,9.00496 -4.9733,0 -9.00496,-4.03165 -9.00496,-9.00496 0,-4.9733 4.03166,-9.00496 9.00496,-9.00496 4.9733,0 9.00496,4.03166 9.00496,9.00496 z m -38.03377,0 c 0,5.34443 -4.33252,9.67694 -9.67694,9.67694 -5.34443,0 -9.67694,-4.33251 -9.67694,-9.67694 0,-5.34442 4.33251,-9.67694 9.67694,-9.67694 5.34442,0 9.67694,4.33252 9.67694,9.67694 z m -38.03378,0 c 0,5.71555 -4.63337,10.34893 -10.34892,10.34893 -5.71555,0 -10.34892,-4.63338 -10.34892,-10.34893 0,-5.71555 4.63337,-10.34892 10.34892,-10.34892 5.71555,0 10.34892,4.63337 10.34892,10.34892 z m -38.03378,0 c 0,6.08668 -4.93422,11.02091 -11.0209,11.02091 -6.08668,0 -11.0209,-4.93423 -11.0209,-11.02091 0,-6.08667 4.93423,-11.0209 11.0209,-11.0209 6.08667,0 11.0209,4.93423 11.0209,11.0209 z m -38.03378,0 c 0,6.4578 -5.23507,11.69289 -11.69288,11.69289 -6.4578,0 -11.69288,-5.23509 -11.69288,-11.69289 0,-6.4578 5.23509,-11.69288 11.69288,-11.69288 6.4578,0 11.69288,5.23508 11.69288,11.69288 z m -38.03377,0 c 0,6.82893 -5.53594,12.36487 -12.36486,12.36487 -6.82893,0 -12.364863,-5.53594 -12.364863,-12.36487 0,-6.82892 5.535937,-12.36486 12.364863,-12.36486 6.82892,0 12.36486,5.53594 12.36486,12.36486 z m -38.033781,0 c 0,7.20005 -5.836789,13.03685 -13.036839,13.03685 -7.200051,0 -13.036841,-5.8368 -13.03684,-13.03685 -1e-6,-7.20004 5.836793,-13.03684 13.03684,-13.03684 7.200046,0 13.036839,5.8368 13.036839,13.03684 z m -38.033777,0 c 0,7.57118 -6.137644,13.70883 -13.70882,13.70883 -7.571175,0 -13.7088198,-6.13765 -13.7088197,-13.70883 -10e-8,-7.57117 6.1376487,-13.70882 13.7088197,-13.70882 7.571171,0 13.70882,6.13765 13.70882,13.70882 z m -38.033777,0 c 0,7.9423 -6.4385,14.38081 -14.3808,14.38081 -7.9423,0 -14.3808,-6.43851 -14.3808,-14.38081 0,-7.94229 6.438505,-14.3808 14.3808,-14.3808 7.942295,0 14.3808,6.43851 14.3808,14.3808 z m -38.033777,0 c 0,8.31343 -6.739356,15.05279 -15.05278,15.05279 -8.313425,0 -15.05278,-6.73936 -15.05278,-15.05279 0,-8.31342 6.73936,-15.05278 15.05278,-15.05278 8.313419,0 15.05278,6.73936 15.05278,15.05278 z m -38.033778,0 c 0,8.68455 -7.040211,15.72477 -15.72476,15.72477 -8.68455,0 -15.72476,-7.04022 -15.72476,-15.72477 0,-8.68454 7.04022,-15.72476 15.72476,-15.72476 8.684544,0 15.72476,7.04022 15.72476,15.72476 z m -38.03378,0 c 0,9.05568 -7.34106,16.39675 -16.39674,16.39675 -9.05567,0 -16.39674,-7.34107 -16.39674,-16.39675 0,-9.05566 7.34108,-16.39674 16.39674,-16.39674 9.05567,0 16.39674,7.34108 16.39674,16.39674 z m -38.03377,0 c 0,9.4268 -7.64193,17.06873 -17.06872,17.06873 -9.4268,0 -17.06872,-7.64193 -17.06872,-17.06873 0,-9.42679 7.64192,-17.06872 17.06872,-17.06872 9.42679,0 17.06872,7.64193 17.06872,17.06872 z m -38.03378,0 c 0,9.79793 -7.94278,17.74071 -17.7407,17.74071 -9.79792,0 -17.7407,-7.94278 -17.7407,-17.74071 0,-9.79791 7.94278,-17.7407 17.7407,-17.7407 9.79791,0 17.7407,7.94279 17.7407,17.7407 z m -38.03378,0 c 0,10.16905 -8.24363,18.41269 -18.41268,18.41269 -10.16905,0 -18.41268,-8.24364 -18.41268,-18.41269 0,-10.16904 8.24364,-18.41268 18.41268,-18.41268 10.16904,0 18.41268,8.24364 18.41268,18.41268 z m -38.03378,0 c 0,10.54017 -8.54448,19.08467 -19.08466,19.08467 -10.54017,0 -19.08466,-8.5445 -19.08466,-19.08467 0,-10.54016 8.5445,-19.08466 19.08466,-19.08466 10.54017,0 19.08466,8.5445 19.08466,19.08466 z m -38.03377,0 c 0,10.9113 -8.84535,19.75665 -19.75664,19.75665 -10.9113,0 -19.75664,-8.84535 -19.75664,-19.75665 0,-10.91129 8.84535,-19.75664 19.75664,-19.75664 10.91129,0 19.75664,8.84535 19.75664,19.75664 z m -38.03378,0 c 0,11.28242 -9.1462,20.42863 -20.42862,20.42863 -11.28242,0 -20.42862,-9.14621 -20.42862,-20.42863 0,-11.28241 9.14621,-20.42862 20.42862,-20.42862 11.28241,0 20.42862,9.14621 20.42862,20.42862 z m -38.03378,0 c 0,11.65355 -9.44705,21.10061 -21.1006,21.10061 -11.65354,0 -21.1006,-9.44706 -21.1006,-21.10061 0,-11.65353 9.44706,-21.1006 21.1006,-21.1006 11.65354,0 21.1006,9.44707 21.1006,21.1006 z m -38.03377,0 c 0,12.02467 -9.74792,21.77259 -21.77258,21.77259 -12.02467,0 -21.77258,-9.74792 -21.77258,-21.77259 0,-12.02466 9.74791,-21.77258 21.77258,-21.77258 12.02466,0 21.77258,9.74792 21.77258,21.77258 z m -38.03378,0 c 0,12.3958 -10.04877,22.44457 -22.44456,22.44457 -12.3958,0 -22.44456,-10.04877 -22.44456,-22.44457 0,-12.39578 10.04877,-22.44456 22.44456,-22.44456 12.39578,0 22.44456,10.04878 22.44456,22.44456 z m -38.03378,0 c 0,12.76692 -10.34962,23.11655 -23.11654,23.11655 -12.76692,0 -23.11654,-10.34963 -23.11654,-23.11655 0,-12.76691 10.34963,-23.11654 23.11654,-23.11654 12.76691,0 23.11654,10.34963 23.11654,23.11654 z m -38.03378,0 c 0,13.13805 -10.65047,23.78853 -23.78852,23.78853 -13.13804,0 -23.78852,-10.65048 -23.78852,-23.78853 0,-13.13803 10.65049,-23.78852 23.78852,-23.78852 13.13804,0 23.78852,10.65049 23.78852,23.78852 z m -38.03377,0 c 0,13.50917 -10.95134,24.46051 -24.4605,24.46051 -13.50917,0 -24.4605,-10.95134 -24.4605,-24.46051 0,-13.50915 10.95134,-24.4605 24.4605,-24.4605 13.50915,0 24.4605,10.95135 24.4605,24.4605 z m -38.03378,0 c 0,13.8803 -11.25219,25.13249 -25.13248,25.13249 -13.88029,0 -25.13248,-11.25219 -25.13248,-25.13249 0,-13.88028 11.2522,-25.13248 25.13248,-25.13248 13.88028,0 25.13248,11.2522 25.13248,25.13248 z m -38.03378,0 c 0,14.25142 -11.55304,25.80447 -25.80446,25.80447 -14.25141,0 -25.80446,-11.55305 -25.80446,-25.80447 0,-14.2514 11.55305,-25.80446 25.80446,-25.80446 14.25141,0 25.80446,11.55306 25.80446,25.80446 z m -38.03378,0 c 0,14.62255 -11.85389,26.47645 -26.47644,26.47645 -14.62254,0 -26.47644,-11.8539 -26.47644,-26.47645 0,-14.62253 11.85391,-26.47644 26.47644,-26.47644 14.62254,0 26.47644,11.85391 26.47644,26.47644 z m -38.03377,0 c 0,14.99367 -12.15476,27.14843 -27.14842,27.14843 -14.99367,0 -27.14842,-12.15476 -27.14842,-27.14843 0,-14.99365 12.15476,-27.14842 27.14842,-27.14842 14.99365,0 27.14842,12.15477 27.14842,27.14842 z m -38.03378,1e-5 c 0,15.36479 -12.45561,27.82041 -27.8204,27.82041 -15.36479,0 -27.8204,-12.45562 -27.8204,-27.82041 0,-15.36478 12.45562,-27.8204 27.8204,-27.8204 15.36478,0 27.8204,12.45562 27.8204,27.8204 z m 1466.15637,36.6408 c 0,0.51981 -0.42139,0.9412 -0.9412,0.9412 -0.51981,0 -0.9412,-0.42139 -0.9412,-0.9412 0,-0.51981 0.42139,-0.9412 0.9412,-0.9412 0.51981,0 0.9412,0.42139 0.9412,0.9412 z m -38.03377,0 c 0,0.89093 -0.72225,1.61318 -1.61318,1.61318 -0.89094,0 -1.61318,-0.72225 -1.61318,-1.61318 0,-0.89093 0.72224,-1.61318 1.61318,-1.61318 0.89093,0 1.61318,0.72225 1.61318,1.61318 z m -38.03378,0 c 0,1.26206 -1.0231,2.28516 -2.28516,2.28516 -1.26206,0 -2.28516,-1.0231 -2.28516,-2.28516 0,-1.26206 1.0231,-2.28516 2.28516,-2.28516 1.26206,0 2.28516,1.0231 2.28516,2.28516 z m -38.03378,0 c 0,1.63318 -1.32395,2.95714 -2.95714,2.95714 -1.63318,0 -2.95714,-1.32396 -2.95714,-2.95714 0,-1.63318 1.32396,-2.95714 2.95714,-2.95714 1.63318,0 2.95714,1.32396 2.95714,2.95714 z m -38.03378,0 c 0,2.00431 -1.62481,3.62912 -3.62912,3.62912 -2.0043,0 -3.62912,-1.62481 -3.62912,-3.62912 0,-2.00431 1.62482,-3.62912 3.62912,-3.62912 2.00431,0 3.62912,1.62481 3.62912,3.62912 z m -38.03377,0 c 0,2.37543 -1.92567,4.3011 -4.3011,4.3011 -2.37543,0 -4.3011,-1.92567 -4.3011,-4.3011 0,-2.37543 1.92567,-4.3011 4.3011,-4.3011 2.37543,0 4.3011,1.92567 4.3011,4.3011 z m -38.03378,0 c 0,2.74656 -2.22652,4.97308 -4.97308,4.97308 -2.74656,0 -4.97308,-2.22652 -4.97308,-4.97308 0,-2.74655 2.22652,-4.97308 4.97308,-4.97308 2.74656,0 4.97308,2.22653 4.97308,4.97308 z m -38.03378,0 c 0,3.11768 -2.52738,5.64506 -5.64506,5.64506 -3.11768,0 -5.64506,-2.52738 -5.64506,-5.64506 0,-3.11768 2.52738,-5.64506 5.64506,-5.64506 3.11768,0 5.64506,2.52738 5.64506,5.64506 z m -38.03377,0 c 0,3.48881 -2.82824,6.31704 -6.31704,6.31704 -3.48881,0 -6.31704,-2.82823 -6.31704,-6.31704 0,-3.4888 2.82823,-6.31704 6.31704,-6.31704 3.4888,0 6.31704,2.82824 6.31704,6.31704 z m -38.03378,0 c 0,3.85993 -3.12909,6.98902 -6.98902,6.98902 -3.85993,0 -6.98902,-3.12909 -6.98902,-6.98902 0,-3.85993 3.12909,-6.98902 6.98902,-6.98902 3.85993,0 6.98902,3.12909 6.98902,6.98902 z m -38.03378,0 c 0,4.23106 -3.42994,7.661 -7.661,7.661 -4.23105,0 -7.661,-3.42994 -7.661,-7.661 0,-4.23105 3.42995,-7.661 7.661,-7.661 4.23105,0 7.661,3.42995 7.661,7.661 z m -38.03378,0 c 0,4.60218 -3.7308,8.33298 -8.33298,8.33298 -4.60218,0 -8.33298,-3.7308 -8.33298,-8.33298 0,-4.60218 3.73081,-8.33298 8.33298,-8.33298 4.60218,0 8.33298,3.7308 8.33298,8.33298 z m -38.03377,0 c 0,4.97331 -4.03166,9.00496 -9.00496,9.00496 -4.97331,0 -9.00496,-4.03165 -9.00496,-9.00496 0,-4.9733 4.03166,-9.00496 9.00496,-9.00496 4.9733,0 9.00496,4.03166 9.00496,9.00496 z m -38.03378,0 c 0,5.34443 -4.33251,9.67694 -9.67694,9.67694 -5.34443,0 -9.67694,-4.33251 -9.67694,-9.67694 0,-5.34442 4.33251,-9.67694 9.67694,-9.67694 5.34442,0 9.67694,4.33252 9.67694,9.67694 z m -38.03378,0 c 0,5.71555 -4.63336,10.34893 -10.34892,10.34893 -5.71555,0 -10.34892,-4.63338 -10.34892,-10.34893 0,-5.71555 4.63337,-10.34892 10.34892,-10.34892 5.71555,0 10.34892,4.63337 10.34892,10.34892 z m -38.03377,0 c 0,6.08668 -4.93423,11.02091 -11.0209,11.02091 -6.08668,0 -11.0209,-4.93423 -11.0209,-11.02091 0,-6.08667 4.93422,-11.0209 11.0209,-11.0209 6.08667,0 11.0209,4.93423 11.0209,11.0209 z m -38.033782,0 c 0,6.4578 -5.235078,11.69289 -11.69288,11.69289 -6.457802,0 -11.69288,-5.23509 -11.69288,-11.69289 0,-6.4578 5.235082,-11.69288 11.69288,-11.69288 6.457798,0 11.69288,5.23508 11.69288,11.69288 z m -38.033777,0 c 0,6.82893 -5.535934,12.36487 -12.36486,12.36487 -6.828927,0 -12.36486,-5.53594 -12.36486,-12.36487 0,-6.82892 5.535937,-12.36486 12.36486,-12.36486 6.828922,0 12.36486,5.53594 12.36486,12.36486 z m -38.033778,0 c 0,7.20005 -5.836789,13.03685 -13.0368396,13.03685 -7.20005105,0 -13.0368401,-5.8368 -13.03684,-13.03685 -1e-7,-7.20004 5.83679345,-13.03684 13.03684,-13.03684 7.2000466,0 13.0368396,5.8368 13.0368396,13.03684 z m -38.033777,0 c 0,7.57118 -6.137644,13.70883 -13.70882,13.70883 -7.571175,0 -13.70882,-6.13765 -13.70882,-13.70883 0,-7.57117 6.137649,-13.70882 13.70882,-13.70882 7.571171,0 13.70882,6.13765 13.70882,13.70882 z m -38.033777,0 c 0,7.9423 -6.4385,14.38081 -14.3808,14.38081 -7.9423,0 -14.3808,-6.43851 -14.3808,-14.38081 0,-7.94229 6.438505,-14.3808 14.3808,-14.3808 7.942295,0 14.3808,6.43851 14.3808,14.3808 z m -38.033777,0 c 0,8.31343 -6.739352,15.05279 -15.052782,15.05279 -8.31342,0 -15.05278,-6.73936 -15.05278,-15.05279 0,-8.31342 6.73936,-15.05278 15.05278,-15.05278 8.31342,0 15.052782,6.73936 15.052782,15.05278 z m -38.033782,0 c 0,8.68455 -7.04021,15.72477 -15.72476,15.72477 -8.68454,0 -15.72476,-7.04022 -15.72476,-15.72477 0,-8.68454 7.04022,-15.72476 15.72476,-15.72476 8.68455,0 15.72476,7.04022 15.72476,15.72476 z m -38.03377,0 c 0,9.05568 -7.34107,16.39675 -16.39674,16.39675 -9.05568,0 -16.39674,-7.34107 -16.39674,-16.39675 0,-9.05566 7.34107,-16.39674 16.39674,-16.39674 9.05566,0 16.39674,7.34108 16.39674,16.39674 z m -38.03378,0 c 0,9.4268 -7.64192,17.06873 -17.06872,17.06873 -9.4268,0 -17.06872,-7.64193 -17.06872,-17.06873 0,-9.42679 7.64193,-17.06872 17.06872,-17.06872 9.42679,0 17.06872,7.64193 17.06872,17.06872 z m -38.03378,0 c 0,9.79793 -7.94277,17.74071 -17.7407,17.74071 -9.79792,0 -17.7407,-7.94278 -17.7407,-17.74071 0,-9.79791 7.94279,-17.7407 17.7407,-17.7407 9.79792,0 17.7407,7.94279 17.7407,17.7407 z m -38.03377,0 c 0,10.16905 -8.24364,18.41269 -18.41268,18.41269 -10.16905,0 -18.41268,-8.24364 -18.41268,-18.41269 0,-10.16904 8.24363,-18.41268 18.41268,-18.41268 10.16904,0 18.41268,8.24364 18.41268,18.41268 z m -38.03378,0 c 0,10.54017 -8.54449,19.08467 -19.08466,19.08467 -10.54017,0 -19.08466,-8.5445 -19.08466,-19.08467 0,-10.54016 8.54449,-19.08466 19.08466,-19.08466 10.54016,0 19.08466,8.5445 19.08466,19.08466 z m -38.03378,0 c 0,10.9113 -8.84534,19.75665 -19.75664,19.75665 -10.9113,0 -19.75664,-8.84535 -19.75664,-19.75665 0,-10.91129 8.84535,-19.75664 19.75664,-19.75664 10.91129,0 19.75664,8.84535 19.75664,19.75664 z m -38.03378,0 c 0,11.28242 -9.1462,20.42863 -20.42862,20.42863 -11.28242,0 -20.42862,-9.14621 -20.42862,-20.42863 0,-11.28241 9.14621,-20.42862 20.42862,-20.42862 11.28242,0 20.42862,9.14621 20.42862,20.42862 z m -38.03377,0 c 0,11.65355 -9.44706,21.10061 -21.1006,21.10061 -11.65355,0 -21.1006,-9.44706 -21.1006,-21.10061 0,-11.65353 9.44706,-21.1006 21.1006,-21.1006 11.65353,0 21.1006,9.44707 21.1006,21.1006 z m -38.03378,0 c 0,12.02467 -9.74791,21.77259 -21.77258,21.77259 -12.02467,0 -21.77258,-9.74792 -21.77258,-21.77259 0,-12.02466 9.74792,-21.77258 21.77258,-21.77258 12.02466,0 21.77258,9.74792 21.77258,21.77258 z m -38.03378,0 c 0,12.3958 -10.04876,22.44457 -22.44456,22.44457 -12.39579,0 -22.44456,-10.04877 -22.44456,-22.44457 0,-12.39578 10.04878,-22.44456 22.44456,-22.44456 12.39579,0 22.44456,10.04878 22.44456,22.44456 z m -38.03378,0 c 0,12.76692 -10.34962,23.11655 -23.11654,23.11655 -12.76691,0 -23.11654,-10.34963 -23.11654,-23.11655 0,-12.76691 10.34963,-23.11654 23.11654,-23.11654 12.76691,0 23.11654,10.34963 23.11654,23.11654 z m -38.03377,0 c 0,13.13805 -10.65048,23.78853 -23.78852,23.78853 -13.13805,0 -23.78852,-10.65048 -23.78852,-23.78853 0,-13.13803 10.65048,-23.78852 23.78852,-23.78852 13.13803,0 23.78852,10.65049 23.78852,23.78852 z m -38.03378,0 c 0,13.50917 -10.95133,24.46051 -24.4605,24.46051 -13.50917,0 -24.4605,-10.95134 -24.4605,-24.46051 0,-13.50915 10.95134,-24.4605 24.4605,-24.4605 13.50916,0 24.4605,10.95135 24.4605,24.4605 z m -38.03378,0 c 0,13.8803 -11.25219,25.13249 -25.13248,25.13249 -13.88029,0 -25.13248,-11.25219 -25.13248,-25.13249 0,-13.88028 11.2522,-25.13248 25.13248,-25.13248 13.88029,0 25.13248,11.2522 25.13248,25.13248 z m -38.03377,0 c 0,14.25142 -11.55305,25.80447 -25.80446,25.80447 -14.25142,0 -25.80446,-11.55305 -25.80446,-25.80447 0,-14.2514 11.55305,-25.80446 25.80446,-25.80446 14.2514,0 25.80446,11.55306 25.80446,25.80446 z m -38.03378,0 c 0,14.62255 -11.8539,26.47645 -26.47644,26.47645 -14.62254,0 -26.47644,-11.8539 -26.47644,-26.47645 0,-14.62253 11.85391,-26.47644 26.47644,-26.47644 14.62253,0 26.47644,11.85391 26.47644,26.47644 z m -38.03378,0 c 0,14.99367 -12.15475,27.14843 -27.14842,27.14843 -14.99366,0 -27.14842,-12.15476 -27.14842,-27.14843 0,-14.99365 12.15477,-27.14842 27.14842,-27.14842 14.99366,0 27.14842,12.15477 27.14842,27.14842 z m -38.03378,1e-5 c 0,15.36479 -12.45561,27.82041 -27.8204,27.82041 -15.36479,0 -27.8204,-12.45562 -27.8204,-27.82041 0,-15.36478 12.45562,-27.8204 27.8204,-27.8204 15.36478,0 27.8204,12.45562 27.8204,27.8204 z m 1576.54581,36.6408 c 0,0.51981 -0.42139,0.9412 -0.9412,0.9412 -0.51981,0 -0.9412,-0.42139 -0.9412,-0.9412 0,-0.51981 0.42139,-0.9412 0.9412,-0.9412 0.51981,0 0.9412,0.42139 0.9412,0.9412 z m -38.03378,0 c 0,0.89093 -0.72224,1.61318 -1.61318,1.61318 -0.89093,0 -1.61318,-0.72225 -1.61318,-1.61318 0,-0.89093 0.72225,-1.61318 1.61318,-1.61318 0.89094,0 1.61318,0.72225 1.61318,1.61318 z m -38.03377,0 c 0,1.26206 -1.02311,2.28516 -2.28516,2.28516 -1.26206,0 -2.28516,-1.0231 -2.28516,-2.28516 0,-1.26206 1.0231,-2.28516 2.28516,-2.28516 1.26205,0 2.28516,1.0231 2.28516,2.28516 z m -38.03378,0 c 0,1.63318 -1.32396,2.95714 -2.95714,2.95714 -1.63319,0 -2.95714,-1.32396 -2.95714,-2.95714 0,-1.63318 1.32396,-2.95714 2.95714,-2.95714 1.63318,0 2.95714,1.32396 2.95714,2.95714 z m -38.03378,0 c 0,2.00431 -1.62481,3.62912 -3.62912,3.62912 -2.00431,0 -3.62912,-1.62481 -3.62912,-3.62912 0,-2.00431 1.62481,-3.62912 3.62912,-3.62912 2.00431,0 3.62912,1.62481 3.62912,3.62912 z m -38.03378,0 c 0,2.37543 -1.92566,4.3011 -4.3011,4.3011 -2.37543,0 -4.3011,-1.92567 -4.3011,-4.3011 0,-2.37543 1.92567,-4.3011 4.3011,-4.3011 2.37544,0 4.3011,1.92567 4.3011,4.3011 z m -38.03377,0 c 0,2.74656 -2.22653,4.97308 -4.97308,4.97308 -2.74656,0 -4.97308,-2.22652 -4.97308,-4.97308 0,-2.74655 2.22652,-4.97308 4.97308,-4.97308 2.74655,0 4.97308,2.22653 4.97308,4.97308 z m -38.03378,0 c 0,3.11768 -2.52738,5.64506 -5.64506,5.64506 -3.11768,0 -5.64506,-2.52738 -5.64506,-5.64506 0,-3.11768 2.52738,-5.64506 5.64506,-5.64506 3.11768,0 5.64506,2.52738 5.64506,5.64506 z m -38.03378,0 c 0,3.48881 -2.82823,6.31704 -6.31704,6.31704 -3.4888,0 -6.31704,-2.82823 -6.31704,-6.31704 0,-3.4888 2.82824,-6.31704 6.31704,-6.31704 3.48881,0 6.31704,2.82824 6.31704,6.31704 z m -38.03378,0 c 0,3.85993 -3.12908,6.98902 -6.98902,6.98902 -3.85993,0 -6.98902,-3.12909 -6.98902,-6.98902 0,-3.85993 3.1291,-6.98902 6.98902,-6.98902 3.85993,0 6.98902,3.12909 6.98902,6.98902 z m -38.03377,0 c 0,4.23106 -3.42995,7.661 -7.661,7.661 -4.23106,0 -7.661,-3.42994 -7.661,-7.661 0,-4.23105 3.42994,-7.661 7.661,-7.661 4.23105,0 7.661,3.42995 7.661,7.661 z m -38.03378,0 c 0,4.60218 -3.7308,8.33298 -8.33298,8.33298 -4.60218,0 -8.33298,-3.7308 -8.33298,-8.33298 0,-4.60218 3.7308,-8.33298 8.33298,-8.33298 4.60218,0 8.33298,3.7308 8.33298,8.33298 z m -38.03378,0 c 0,4.97331 -4.03165,9.00496 -9.00496,9.00496 -4.9733,0 -9.00496,-4.03165 -9.00496,-9.00496 0,-4.9733 4.03166,-9.00496 9.00496,-9.00496 4.9733,0 9.00496,4.03166 9.00496,9.00496 z m -38.03377,0 c 0,5.34443 -4.33252,9.67694 -9.67694,9.67694 -5.34443,0 -9.67694,-4.33251 -9.67694,-9.67694 0,-5.34442 4.33251,-9.67694 9.67694,-9.67694 5.34442,0 9.67694,4.33252 9.67694,9.67694 z m -38.03378,0 c 0,5.71555 -4.63337,10.34893 -10.34892,10.34893 -5.71555,0 -10.34892,-4.63338 -10.34892,-10.34893 0,-5.71555 4.63337,-10.34892 10.34892,-10.34892 5.71555,0 10.34892,4.63337 10.34892,10.34892 z m -38.03378,0 c 0,6.08668 -4.93422,11.02091 -11.0209,11.02091 -6.08668,0 -11.0209,-4.93423 -11.0209,-11.02091 0,-6.08667 4.93423,-11.0209 11.0209,-11.0209 6.08667,0 11.0209,4.93423 11.0209,11.0209 z m -38.03378,0 c 0,6.4578 -5.23507,11.69289 -11.69288,11.69289 -6.4578,0 -11.69288,-5.23509 -11.69288,-11.69289 0,-6.4578 5.23509,-11.69288 11.69288,-11.69288 6.4578,0 11.69288,5.23508 11.69288,11.69288 z m -38.03377,0 c 0,6.82893 -5.53594,12.36487 -12.36486,12.36487 -6.82893,0 -12.364863,-5.53594 -12.364863,-12.36487 0,-6.82892 5.535937,-12.36486 12.364863,-12.36486 6.82892,0 12.36486,5.53594 12.36486,12.36486 z m -38.033781,0 c 0,7.20005 -5.836789,13.03685 -13.036839,13.03685 -7.200051,0 -13.036841,-5.8368 -13.03684,-13.03685 -1e-6,-7.20004 5.836793,-13.03684 13.03684,-13.03684 7.200046,0 13.036839,5.8368 13.036839,13.03684 z m -38.033777,0 c 0,7.57118 -6.137644,13.70883 -13.70882,13.70883 -7.571175,0 -13.7088198,-6.13765 -13.7088197,-13.70883 -10e-8,-7.57117 6.1376487,-13.70882 13.7088197,-13.70882 7.571171,0 13.70882,6.13765 13.70882,13.70882 z m -38.033777,0 c 0,7.9423 -6.4385,14.380808 -14.3808,14.380808 -7.9423,0 -14.3808,-6.438508 -14.3808,-14.380808 0,-7.94229 6.438505,-14.3808 14.3808,-14.3808 7.942295,0 14.3808,6.43851 14.3808,14.3808 z m -38.033777,0 c 0,8.31343 -6.739356,15.052788 -15.05278,15.052788 -8.313425,0 -15.05278,-6.739358 -15.05278,-15.052788 0,-8.31342 6.73936,-15.05278 15.05278,-15.05278 8.313419,0 15.05278,6.73936 15.05278,15.05278 z m -38.033778,0 c 0,8.68455 -7.040211,15.724768 -15.72476,15.724768 -8.68455,0 -15.72476,-7.040218 -15.72476,-15.724768 0,-8.68454 7.04022,-15.72476 15.72476,-15.72476 8.684544,0 15.72476,7.04022 15.72476,15.72476 z m -38.03378,0 c 0,9.05568 -7.34106,16.396749 -16.39674,16.396749 -9.05567,0 -16.39674,-7.341069 -16.39674,-16.396749 0,-9.05566 7.34108,-16.39674 16.39674,-16.39674 9.05567,0 16.39674,7.34108 16.39674,16.39674 z m -38.03377,0 c 0,9.4268 -7.64193,17.068729 -17.06872,17.068729 -9.4268,0 -17.06872,-7.641929 -17.06872,-17.068729 0,-9.42679 7.64192,-17.06872 17.06872,-17.06872 9.42679,0 17.06872,7.64193 17.06872,17.06872 z m -38.03378,0 c 0,9.79793 -7.94278,17.740709 -17.7407,17.740709 -9.79792,0 -17.7407,-7.942779 -17.7407,-17.740709 0,-9.79791 7.94278,-17.7407 17.7407,-17.7407 9.79791,0 17.7407,7.94279 17.7407,17.7407 z m -38.03378,0 c 0,10.16905 -8.24363,18.41269 -18.41268,18.41269 -10.16905,0 -18.41268,-8.24364 -18.41268,-18.41269 0,-10.16904 8.24364,-18.41268 18.41268,-18.41268 10.16904,0 18.41268,8.24364 18.41268,18.41268 z m -38.03378,0 c 0,10.54017 -8.54448,19.08467 -19.08466,19.08467 -10.54017,0 -19.08466,-8.5445 -19.08466,-19.08467 0,-10.54016 8.5445,-19.08466 19.08466,-19.08466 10.54017,0 19.08466,8.5445 19.08466,19.08466 z m -38.03377,0 c 0,10.9113 -8.84535,19.756651 -19.75664,19.756651 -10.9113,0 -19.75664,-8.845351 -19.75664,-19.756651 0,-10.91129 8.84535,-19.75664 19.75664,-19.75664 10.91129,0 19.75664,8.84535 19.75664,19.75664 z m -38.03378,0 c 0,11.28242 -9.1462,20.428631 -20.42862,20.428631 -11.28242,0 -20.42862,-9.146211 -20.42862,-20.428631 0,-11.28241 9.14621,-20.42862 20.42862,-20.42862 11.28241,0 20.42862,9.14621 20.42862,20.42862 z m -38.03378,0 c 0,11.65355 -9.44705,21.100611 -21.1006,21.100611 -11.65354,0 -21.1006,-9.447061 -21.1006,-21.100611 0,-11.65353 9.44706,-21.1006 21.1006,-21.1006 11.65354,0 21.1006,9.44707 21.1006,21.1006 z m -38.03377,0 c 0,12.02467 -9.74792,21.772592 -21.77258,21.772592 -12.02467,0 -21.77258,-9.747922 -21.77258,-21.772592 0,-12.02466 9.74791,-21.77258 21.77258,-21.77258 12.02466,0 21.77258,9.74792 21.77258,21.77258 z m -38.03378,0 c 0,12.3958 -10.04877,22.444572 -22.44456,22.444572 -12.3958,0 -22.44456,-10.048772 -22.44456,-22.444572 0,-12.39578 10.04877,-22.44456 22.44456,-22.44456 12.39578,0 22.44456,10.04878 22.44456,22.44456 z m -38.03378,0 c 0,12.76692 -10.34962,23.116552 -23.11654,23.116552 -12.76692,0 -23.11654,-10.349632 -23.11654,-23.116552 0,-12.76691 10.34963,-23.11654 23.11654,-23.11654 12.76691,0 23.11654,10.34963 23.11654,23.11654 z m -38.03378,0 c 0,13.13805 -10.65047,23.788533 -23.78852,23.788533 -13.13804,0 -23.78852,-10.650483 -23.78852,-23.788533 0,-13.13803 10.65049,-23.78852 23.78852,-23.78852 13.13804,0 23.78852,10.65049 23.78852,23.78852 z m -38.03377,0 c 0,13.50917 -10.95134,24.460513 -24.4605,24.460513 -13.50917,0 -24.4605,-10.951343 -24.4605,-24.460513 0,-13.50915 10.95134,-24.4605 24.4605,-24.4605 13.50915,0 24.4605,10.95135 24.4605,24.4605 z m -38.03378,0 c 0,13.8803 -11.25219,25.132494 -25.13248,25.132494 -13.88029,0 -25.13248,-11.252194 -25.13248,-25.132494 0,-13.88028 11.2522,-25.13248 25.13248,-25.13248 13.88028,0 25.13248,11.2522 25.13248,25.13248 z m -38.03378,0 c 0,14.251421 -11.55304,25.804474 -25.80446,25.804474 -14.25141,0 -25.80446,-11.553053 -25.80446,-25.804474 0,-14.2514 11.55305,-25.80446 25.80446,-25.80446 14.25141,0 25.80446,11.55306 25.80446,25.80446 z m -38.03378,0 c 0,14.622546 -11.85389,26.476454 -26.47644,26.476454 -14.62254,0 -26.47644,-11.853908 -26.47644,-26.476454 0,-14.62253 11.85391,-26.47644 26.47644,-26.47644 14.62254,0 26.47644,11.85391 26.47644,26.47644 z m -38.03377,0 c 0,14.99367 -12.15476,27.148435 -27.14842,27.148435 -14.99367,0 -27.14842,-12.154765 -27.14842,-27.148435 0,-14.99365 12.15476,-27.14842 27.14842,-27.14842 14.99365,0 27.14842,12.15477 27.14842,27.14842 z m -38.03378,1e-5 c 0,15.364785 -12.45561,27.820405 -27.8204,27.820405 -15.36479,0 -27.8204,-12.45562 -27.8204,-27.820405 0,-15.36478 12.45562,-27.8204 27.8204,-27.8204 15.36478,0 27.8204,12.45562 27.8204,27.8204 z"
         transform="matrix(0.3464378,0,0,0.3464378,302.15415,64.887)"
         clip-path="url(#clipPath52-8)" />
    </pattern>
    <clipPath
       clipPathUnits="userSpaceOnUse"
       id="clipPath52-8">
      <path
         id="path52-5"
         style="stroke-width:0.1;stroke-linecap:square;paint-order:markers fill stroke;stop-color:#000000"
         d="m -880.82767,-187.29769 h 1640.84 v 73.28155 h -1640.84 z" />
    </clipPath>
  </defs>
  <g
     id="layer1">
    <path
       style="font-size:484.016px;font-family:'Watermelon Sugar';-inkscape-font-specification:'Watermelon Sugar';fill:#56b2ff;stroke-width:40.3347"
       d="m 213.00537,417.94659 q -15.59817,0 -29.30565,-10.87146 -21.27024,-18.90687 -38.99543,-70.42811 -6.61741,-19.61588 -9.68978,-19.61588 -0.94534,0 -2.59969,0.94535 -6.38107,4.01771 -13.94382,5.67206 -3.78138,0.70901 -3.78138,4.49038 v 1.41802 q 1.41802,9.2171 1.41802,18.19786 0,10.63512 -2.12702,21.27024 -2.83603,17.25252 -15.125503,29.54199 -12.289469,10.87145 -26.469625,10.87145 -15.361836,0 -27.88764,-12.5258 -10.162445,-11.8168 -12.998476,-26.9423 -4.254047,-19.37955 -5.199391,-39.23176 -0.945344,-15.59818 -1.418016,-31.19635 V 279.9264 l 7.090078,-145.11026 q 0,-9.45344 1.890688,-18.90688 3.072367,-16.779848 14.652828,-30.723668 12.998476,-12.998477 27.651304,-12.998477 9.689773,0 18.434203,5.672063 13.47115,8.744429 18.4342,31.196342 6.38107,26.9423 6.38107,54.12093 0,15.59817 -1.65435,31.19634 l -2.59969,26.9423 q 0,1.18168 1.18168,1.41801 0.709,0 1.18168,-0.47267 0.47267,-0.47267 0.709,-0.94534 0.23634,-0.47267 0.47267,-0.94534 l 17.96154,-28.12398 q 14.65282,-23.86993 30.48733,-47.03085 9.92611,-14.18016 19.14321,-28.59665 l 7.32642,-11.10779 q 8.74443,-14.652826 23.86993,-21.270232 8.03542,-3.072367 15.36183,-3.072367 12.76214,0 23.86993,9.217101 13.23481,11.816798 13.23481,28.360308 0,16.07085 -10.87145,30.96001 l -68.06475,102.80613 q -1.89069,2.5997 -1.89069,4.01771 0,1.41802 2.83603,4.01771 17.96154,16.77986 29.77833,38.52276 l 25.76062,47.73986 q 7.56275,12.05313 7.79908,27.6513 0,25.76062 -23.16092,38.7591 -9.2171,4.72672 -19.14321,4.72672 z m 272.259,-6.38107 q -16.54352,0 -31.90535,-7.32642 -15.36184,-7.56275 -26.70596,-22.21558 -5.1994,-6.85374 -8.98077,-14.18015 -1.18168,-2.83603 -2.5997,-2.83603 -1.18167,0 -2.83603,2.36336 -9.45343,12.28946 -23.39725,20.56122 -15.1255,8.03542 -30.96001,8.03542 -24.10627,0 -45.14016,-18.19786 -35.21406,-33.08703 -35.21406,-94.77071 0,-17.01619 1.89069,-34.03238 3.3087,-43.72214 13.47115,-86.49895 5.43572,-23.16092 16.07084,-44.66749 4.49038,-8.50809 11.34413,-14.65283 9.9261,-8.271755 20.32489,-8.271755 8.27175,0 15.36183,5.199395 7.09008,4.96305 10.63512,14.65282 3.78137,9.68978 4.25405,19.85222 3.07236,28.12398 3.07236,61.44734 0,11.34413 -0.47267,23.86993 l -0.94534,47.50353 q 0,9.92611 0.709,19.61588 v 0.94534 q 0.23634,1.89069 1.41802,2.12703 1.18168,0 1.65435,-0.70901 0.47267,-0.70901 0.70901,-1.65435 16.77985,-31.90535 31.43268,-85.31728 l 5.67206,-19.14321 q 4.49038,-16.30718 11.58046,-31.66901 8.74443,-20.56123 31.43268,-21.74291 11.10779,0 19.61588,6.85375 13.70749,11.10778 13.70749,32.85069 0,5.9084 -0.70901,12.05313 -4.72672,39.23177 -5.43573,70.42811 0,28.12398 8.5081,55.06627 0,0.23634 0,0.94535 0.23633,0.47267 0.47267,1.41801 0.47267,0.70901 1.41801,0.94535 1.41802,0 2.12703,-2.36336 l 0.23633,-0.70901 q 3.54504,-9.2171 5.9084,-18.90688 12.28947,-47.50352 12.28947,-90.98933 l -0.23634,-8.50809 q -0.709,-23.39726 -9.68977,-45.14017 -8.74443,-18.90687 -9.68977,-39.23176 0,-5.9084 1.65435,-11.816798 3.3087,-11.580461 11.58046,-17.961531 8.50809,-6.617406 19.14321,-6.617406 6.38107,0 12.99848,2.599695 19.61588,8.980765 30.01466,27.414968 6.14473,10.162442 8.74443,21.506572 2.83603,11.10779 4.25405,22.92458 3.78137,28.12398 3.78137,56.24796 0,44.43115 -9.2171,88.86231 l -7.32641,37.34107 q -7.09008,38.05009 -34.97772,65.70139 -11.10779,10.39878 -24.3426,15.59818 -12.99848,5.19939 -26.70596,5.19939 z"
       id="text1"
       transform="scale(0.81594715,1.2255696)"
       aria-label="KW" />
    <circle
       style="fill:url(#pattern2-1)"
       id="path1-8-2"
       cx="425.75464"
       cy="81.629494"
       r="65.348206" />
    <circle
       style="fill:url(#pattern2)"
       id="path1-8"
       cx="279.99628"
       cy="74.024788"
       r="65.348206" />
    <circle
       style="fill:url(#pattern2-2)"
       id="path1-8-1"
       cx="73.314751"
       cy="72.671623"
       r="65.348206" />
  </g>
</svg>
